<svg width="70" height="70" viewBox="0 0 70 70" fill="none" xmlns="http://www.w3.org/2000/svg">
<rect width="70" height="70" rx="20" fill="#EBEBE0"/>
<g style="mix-blend-mode:luminosity" opacity="0.8">
<path fill-rule="evenodd" clip-rule="evenodd" d="M15.3631 40.7533C16.4971 41.8807 16.497 43.7085 15.3631 44.8359L15.305 44.8936C14.1711 46.021 12.3326 46.0209 11.1987 44.8936C10.0648 43.7662 10.0648 41.9384 11.1988 40.8109L11.2568 40.7533C12.3908 39.6259 14.2292 39.6259 15.3631 40.7533Z" fill="#A4BCFD"/>
<path fill-rule="evenodd" clip-rule="evenodd" d="M29.0138 41.6226C30.1457 42.7521 30.1423 44.5799 29.0063 45.7053L20.9634 53.673C19.8274 54.7983 17.989 54.795 16.8571 53.6656C15.7252 52.5361 15.7285 50.7083 16.8645 49.583L24.9075 41.6153C26.0434 40.49 27.8819 40.4932 29.0138 41.6226Z" fill="#6172F3"/>
<path fill-rule="evenodd" clip-rule="evenodd" d="M39.9302 55.3391C40.8198 54.0125 42.6225 53.654 43.9568 54.5384L44.131 54.6538C45.4653 55.5382 45.8258 57.3306 44.9363 58.6571C44.0468 59.9837 42.244 60.3422 40.9098 59.4578L40.7355 59.3423C39.4013 58.458 39.0407 56.6656 39.9302 55.3391Z" fill="#A4BCFD"/>
<path fill-rule="evenodd" clip-rule="evenodd" d="M59.0917 40.5799C60.2256 41.7073 60.2256 43.5351 59.0917 44.6625L55.1428 48.5886C54.0089 49.716 52.1705 49.716 51.0365 48.5886C49.9026 47.4612 49.9026 45.6334 51.0365 44.506L54.9855 40.5799C56.1194 39.4525 57.9578 39.4525 59.0917 40.5799Z" fill="#6172F3"/>
<path fill-rule="evenodd" clip-rule="evenodd" d="M59.1494 26.0594C60.2833 27.1868 60.2833 29.0147 59.1494 30.142L29.9682 59.1548C28.8343 60.2821 26.9958 60.2821 25.8619 59.1548C24.728 58.0274 24.728 56.1995 25.8619 55.0721L55.0431 26.0594C56.177 24.932 58.0155 24.932 59.1494 26.0594Z" fill="#3538CD"/>
<path fill-rule="evenodd" clip-rule="evenodd" d="M53.633 17.1385C54.7669 18.2659 54.7669 20.0937 53.633 21.2211L36.8501 37.907C35.7162 39.0344 33.8777 39.0344 32.7438 37.907C31.6099 36.7797 31.6099 34.9518 32.7438 33.8244L49.5266 17.1385C50.6606 16.0111 52.4991 16.0111 53.633 17.1385Z" fill="#3538CD"/>
<path fill-rule="evenodd" clip-rule="evenodd" d="M44.7754 11.4794C45.9101 12.606 45.9114 14.4339 44.7782 15.562L23.2044 37.0401C22.0713 38.1682 20.2328 38.1695 19.0981 37.0428C17.9634 35.9162 17.9622 34.0884 19.0954 32.9602L40.6691 11.4822C41.8023 10.354 43.6407 10.3528 44.7754 11.4794Z" fill="#3538CD"/>
<path fill-rule="evenodd" clip-rule="evenodd" d="M23.4098 18.3549C24.5418 19.4843 24.5386 21.3121 23.4027 22.4375L14.9532 30.8094C13.8173 31.9348 11.9789 31.9316 10.8469 30.8023C9.71494 29.673 9.7181 27.8452 10.854 26.7197L19.3035 18.3479C20.4393 17.2225 22.2778 17.2256 23.4098 18.3549Z" fill="#6172F3"/>
<path fill-rule="evenodd" clip-rule="evenodd" d="M28.5832 10C30.1868 10 31.4868 11.2925 31.4868 12.8868V13.1755C31.4868 14.7699 30.1868 16.0624 28.5832 16.0624C26.9796 16.0624 25.6796 14.7699 25.6796 13.1755V12.8868C25.6796 11.2925 26.9796 10 28.5832 10Z" fill="#A4BCFD"/>
</g>
</svg>
