<svg width="70" height="70" viewBox="0 0 70 70" fill="none" xmlns="http://www.w3.org/2000/svg">
<rect width="70" height="70" rx="20" fill="#EBEBE0"/>
<g style="mix-blend-mode:luminosity" opacity="0.8">
<path d="M51.257 20.682C50.7659 20.1908 50.2747 19.6997 49.7836 19.2085C48.3101 17.6368 46.7384 16.0652 44.7738 15.0828C42.5145 13.9041 40.0587 14.1988 37.6029 14.1988C33.8702 14.1988 24.5382 14.1988 19.0373 14.1988L22.7701 19.2085C29.548 19.2085 40.1569 19.2085 45.0685 19.2085C47.1313 19.2085 48.8995 19.6015 50.5694 20.682C50.8641 20.7802 51.1588 20.7802 51.257 20.682Z" fill="#66C61C"/>
<path d="M55.3827 28.7367C54.8915 28.2455 54.4004 27.7544 53.9092 27.2632C52.4358 25.6915 50.8641 24.1198 48.8995 23.1375C46.6402 21.9587 44.1844 22.2534 41.7286 22.2534C38.487 22.2534 30.7268 22.2534 25.2258 22.2534L28.9586 27.2632C35.6383 27.2632 44.7738 27.2632 49.2924 27.2632C51.3552 27.2632 53.1234 27.6561 54.7933 28.7367C54.9898 28.8349 55.1862 28.8349 55.3827 28.7367Z" fill="#4CA30D"/>
<path d="M59.9999 36.5956C59.5087 36.1044 59.0176 35.6133 58.5264 35.1221C57.053 33.5504 55.4813 31.9787 53.5167 30.9964C51.2573 29.8176 48.8016 30.1123 46.3458 30.1123C43.3006 30.1123 36.621 30.1123 31.2183 30.1123L34.951 35.1221C41.4343 35.1221 49.6857 35.1221 53.8114 35.1221C55.8742 35.1221 57.6423 35.515 59.3123 36.5956C59.607 36.6938 59.8034 36.792 59.9999 36.5956Z" fill="#3B7C0F"/>
<path d="M18.6442 49.8554C19.1354 50.3466 19.6265 50.8377 20.1177 51.3289C21.5912 52.9006 23.1628 54.4722 25.1275 55.4545C27.3868 56.6333 29.8425 56.3386 32.2983 56.3386H50.864L47.1312 51.3289C40.3532 51.3289 29.7443 51.3289 24.8328 51.3289C22.7699 51.3289 21.0018 50.936 19.3318 49.8554C19.0371 49.7572 18.8407 49.7572 18.6442 49.8554Z" fill="#66C61C"/>
<path d="M14.5195 41.8041C15.0106 42.2953 15.5018 42.7865 15.9929 43.2776C17.4664 44.8493 19.0381 46.421 21.0027 47.4033C23.262 48.5821 25.7178 48.2874 28.1735 48.2874H44.6763L40.9436 43.2776C34.2639 43.2776 25.1284 43.2776 20.6098 43.2776C18.5469 43.2776 16.7788 42.8847 15.1088 41.8041C14.9124 41.7059 14.7159 41.7059 14.5195 41.8041Z" fill="#4CA30D"/>
<path d="M10 33.8456C10.4912 34.3368 10.9823 34.828 11.4735 35.3191C12.9469 36.8908 14.5186 38.4625 16.4832 39.4448C18.7425 40.6236 21.1983 40.3289 23.6541 40.3289H38.7816L35.0489 35.3191C28.5656 35.3191 20.3142 35.3191 16.1885 35.3191C14.1257 35.3191 12.3575 34.9262 10.6876 33.8456C10.3929 33.7474 10.1965 33.7474 10 33.8456Z" fill="#3B7C0F"/>
</g>
</svg>
