<svg width="70" height="70" viewBox="0 0 70 70" fill="none" xmlns="http://www.w3.org/2000/svg">
<rect width="70" height="70" rx="20" fill="#EBEBE0"/>
<g style="mix-blend-mode:luminosity" opacity="0.8">
<path d="M25.4328 11.903C28.466 10.6467 31.717 10 35 10V22.5C33.3584 22.5 31.733 22.8232 30.2164 23.4516C28.6998 24.0797 27.3218 25.0004 26.1612 26.1612C25.0004 27.3218 24.0797 28.6998 23.4516 30.2164C22.8232 31.733 22.5 33.3584 22.5 35H10C10 31.717 10.6467 28.466 11.903 25.4328C13.1594 22.3997 15.0009 19.6438 17.3223 17.3223C19.6438 15.0009 22.3997 13.1594 25.4328 11.903Z" fill="#155EEF"/>
<path d="M10 35C10 38.283 10.6467 41.534 11.903 44.5672C13.1594 47.6002 15.0009 50.3562 17.3223 52.6777C19.6438 54.9992 22.3997 56.8406 25.4328 58.097C28.466 59.3532 31.717 60 35 60C38.283 60 41.534 59.3532 44.5672 58.097C47.6002 56.8406 50.3562 54.9992 52.6777 52.6777C54.9992 50.3562 56.8406 47.6002 58.097 44.5672C59.3532 41.534 60 38.283 60 35H47.5C47.5 36.6416 47.1767 38.267 46.5484 39.7836C45.9202 41.3002 44.9996 42.6782 43.8388 43.8388C42.6782 44.9996 41.3002 45.9203 39.7836 46.5484C38.267 47.1768 36.6416 47.5 35 47.5C33.3584 47.5 31.733 47.1768 30.2164 46.5484C28.6998 45.9203 27.3218 44.9996 26.1612 43.8388C25.0004 42.6782 24.0797 41.3002 23.4516 39.7836C22.8232 38.267 22.5 36.6416 22.5 35H10Z" fill="#84ADFF"/>
<path d="M35 27.0454C30.6068 27.0454 27.0455 30.6068 27.0455 35H42.9546C42.9546 30.6068 39.3932 27.0454 35 27.0454Z" fill="#84ADFF"/>
<path d="M35 42.9546C30.6068 42.9546 27.0455 39.3932 27.0455 35H42.9546C42.9546 39.3932 39.3932 42.9546 35 42.9546Z" fill="#155EEF"/>
</g>
</svg>
