<svg width="352" height="300" viewBox="0 0 352 300" fill="none" xmlns="http://www.w3.org/2000/svg">
<rect width="352" height="300" rx="8" fill="white"/>
<rect x="0.25" y="0.25" width="351.5" height="299.5" rx="7.75" stroke="black" stroke-opacity="0.15" stroke-width="0.5"/>
<path d="M82.6 279.985V278.845H83.335V279.985H82.6ZM82.6 271.95V270.805H83.335V271.95H82.6ZM83.055 279.15C82.5783 279.15 82.1483 279.065 81.765 278.895C81.385 278.725 81.07 278.485 80.82 278.175C80.5733 277.865 80.4117 277.498 80.335 277.075L81.05 276.95C81.16 277.41 81.3967 277.775 81.76 278.045C82.1267 278.312 82.5683 278.445 83.085 278.445C83.6083 278.445 84.0317 278.318 84.355 278.065C84.6783 277.808 84.84 277.473 84.84 277.06C84.84 276.753 84.75 276.508 84.57 276.325C84.39 276.142 84.085 275.985 83.655 275.855L82.055 275.355C81.0883 275.052 80.605 274.478 80.605 273.635C80.605 273.242 80.7017 272.897 80.895 272.6C81.0917 272.3 81.3633 272.067 81.71 271.9C82.06 271.733 82.4683 271.652 82.935 271.655C83.3917 271.655 83.8 271.742 84.16 271.915C84.5233 272.085 84.8217 272.327 85.055 272.64C85.2883 272.953 85.4433 273.325 85.52 273.755L84.785 273.895C84.7383 273.588 84.63 273.32 84.46 273.09C84.2933 272.86 84.0783 272.682 83.815 272.555C83.5517 272.425 83.2583 272.358 82.935 272.355C82.6283 272.355 82.355 272.408 82.115 272.515C81.875 272.622 81.685 272.77 81.545 272.96C81.4083 273.147 81.34 273.362 81.34 273.605C81.34 273.872 81.435 274.098 81.625 274.285C81.8183 274.468 82.1233 274.623 82.54 274.75L83.915 275.165C84.495 275.338 84.9133 275.572 85.17 275.865C85.4267 276.158 85.555 276.55 85.555 277.04C85.555 277.463 85.4517 277.833 85.245 278.15C85.0383 278.467 84.7467 278.713 84.37 278.89C83.9967 279.063 83.5583 279.15 83.055 279.15ZM88.9387 279.15C88.4953 279.15 88.0953 279.047 87.7387 278.84C87.3853 278.633 87.1053 278.353 86.8987 278C86.692 277.643 86.5887 277.243 86.5887 276.8V274C86.5887 273.557 86.692 273.158 86.8987 272.805C87.1053 272.448 87.3853 272.167 87.7387 271.96C88.0953 271.753 88.4953 271.65 88.9387 271.65C89.382 271.65 89.7803 271.753 90.1337 271.96C90.4903 272.167 90.772 272.448 90.9787 272.805C91.1853 273.158 91.2887 273.557 91.2887 274V276.8C91.2887 277.243 91.1853 277.643 90.9787 278C90.772 278.353 90.4903 278.633 90.1337 278.84C89.7803 279.047 89.382 279.15 88.9387 279.15ZM88.9387 278.44C89.2353 278.44 89.5053 278.368 89.7487 278.225C89.992 278.078 90.1853 277.883 90.3287 277.64C90.472 277.397 90.5437 277.128 90.5437 276.835V273.965C90.5437 273.668 90.472 273.398 90.3287 273.155C90.1853 272.912 89.992 272.718 89.7487 272.575C89.5053 272.428 89.2353 272.355 88.9387 272.355C88.642 272.355 88.372 272.428 88.1287 272.575C87.8853 272.718 87.692 272.912 87.5487 273.155C87.4053 273.398 87.3337 273.668 87.3337 273.965V276.835C87.3337 277.128 87.4053 277.397 87.5487 277.64C87.692 277.883 87.8853 278.078 88.1287 278.225C88.372 278.368 88.642 278.44 88.9387 278.44Z" fill="#666666"/>
<path d="M250.855 279V272.505H248.34V271.8H254.105V272.505H251.59V279H250.855ZM258.807 279V276.245C258.807 275.945 258.779 275.67 258.722 275.42C258.665 275.167 258.574 274.947 258.447 274.76C258.324 274.57 258.162 274.423 257.962 274.32C257.765 274.217 257.525 274.165 257.242 274.165C256.982 274.165 256.752 274.21 256.552 274.3C256.355 274.39 256.189 274.52 256.052 274.69C255.919 274.857 255.817 275.06 255.747 275.3C255.677 275.54 255.642 275.813 255.642 276.12L255.122 276.005C255.122 275.452 255.219 274.987 255.412 274.61C255.605 274.233 255.872 273.948 256.212 273.755C256.552 273.562 256.942 273.465 257.382 273.465C257.705 273.465 257.987 273.515 258.227 273.615C258.47 273.715 258.675 273.85 258.842 274.02C259.012 274.19 259.149 274.385 259.252 274.605C259.355 274.822 259.43 275.053 259.477 275.3C259.524 275.543 259.547 275.787 259.547 276.03V279H258.807ZM254.902 279V271.8H255.567V275.865H255.642V279H254.902ZM260.945 272.575V271.75H261.68V272.575H260.945ZM260.945 279V273.6H261.68V279H260.945ZM265.194 279.145C264.56 279.145 264.039 279.008 263.629 278.735C263.222 278.462 262.972 278.082 262.879 277.595L263.629 277.47C263.709 277.777 263.89 278.022 264.174 278.205C264.46 278.385 264.814 278.475 265.234 278.475C265.644 278.475 265.967 278.39 266.204 278.22C266.44 278.047 266.559 277.812 266.559 277.515C266.559 277.348 266.52 277.213 266.444 277.11C266.37 277.003 266.219 276.905 265.989 276.815C265.759 276.725 265.415 276.618 264.959 276.495C264.469 276.362 264.085 276.228 263.809 276.095C263.532 275.962 263.335 275.808 263.219 275.635C263.102 275.458 263.044 275.243 263.044 274.99C263.044 274.683 263.13 274.415 263.304 274.185C263.477 273.952 263.717 273.772 264.024 273.645C264.33 273.515 264.687 273.45 265.094 273.45C265.5 273.45 265.864 273.517 266.184 273.65C266.507 273.78 266.767 273.963 266.964 274.2C267.16 274.437 267.277 274.712 267.314 275.025L266.564 275.16C266.514 274.843 266.355 274.593 266.089 274.41C265.825 274.223 265.49 274.127 265.084 274.12C264.7 274.11 264.389 274.183 264.149 274.34C263.909 274.493 263.789 274.698 263.789 274.955C263.789 275.098 263.832 275.222 263.919 275.325C264.005 275.425 264.162 275.52 264.389 275.61C264.619 275.7 264.945 275.798 265.369 275.905C265.865 276.032 266.255 276.165 266.539 276.305C266.822 276.445 267.024 276.61 267.144 276.8C267.264 276.99 267.324 277.225 267.324 277.505C267.324 278.015 267.134 278.417 266.754 278.71C266.377 279 265.857 279.145 265.194 279.145ZM270.434 279V271.8H271.109L273.939 277.855L276.754 271.8H277.439V278.995H276.739V273.44L274.174 279H273.699L271.139 273.44V279H270.434ZM281.098 279.15C280.561 279.15 280.103 279.028 279.723 278.785C279.343 278.542 279.051 278.205 278.848 277.775C278.644 277.345 278.543 276.852 278.543 276.295C278.543 275.728 278.646 275.232 278.853 274.805C279.059 274.378 279.353 274.047 279.733 273.81C280.116 273.57 280.571 273.45 281.098 273.45C281.638 273.45 282.098 273.572 282.478 273.815C282.861 274.055 283.153 274.39 283.353 274.82C283.556 275.247 283.658 275.738 283.658 276.295C283.658 276.862 283.556 277.36 283.353 277.79C283.149 278.217 282.856 278.55 282.473 278.79C282.089 279.03 281.631 279.15 281.098 279.15ZM281.098 278.445C281.698 278.445 282.144 278.247 282.438 277.85C282.731 277.45 282.878 276.932 282.878 276.295C282.878 275.642 282.729 275.122 282.433 274.735C282.139 274.348 281.694 274.155 281.098 274.155C280.694 274.155 280.361 274.247 280.098 274.43C279.838 274.61 279.643 274.862 279.513 275.185C279.386 275.505 279.323 275.875 279.323 276.295C279.323 276.945 279.473 277.467 279.773 277.86C280.073 278.25 280.514 278.445 281.098 278.445ZM288.661 279V276.245C288.661 275.945 288.632 275.67 288.576 275.42C288.519 275.167 288.427 274.947 288.301 274.76C288.177 274.57 288.016 274.423 287.816 274.32C287.619 274.217 287.379 274.165 287.096 274.165C286.836 274.165 286.606 274.21 286.406 274.3C286.209 274.39 286.042 274.52 285.906 274.69C285.772 274.857 285.671 275.06 285.601 275.3C285.531 275.54 285.496 275.813 285.496 276.12L284.976 276.005C284.976 275.452 285.072 274.987 285.266 274.61C285.459 274.233 285.726 273.948 286.066 273.755C286.406 273.562 286.796 273.465 287.236 273.465C287.559 273.465 287.841 273.515 288.081 273.615C288.324 273.715 288.529 273.85 288.696 274.02C288.866 274.19 289.002 274.385 289.106 274.605C289.209 274.822 289.284 275.053 289.331 275.3C289.377 275.543 289.401 275.787 289.401 276.03V279H288.661ZM284.756 279V273.6H285.421V274.93H285.496V279H284.756ZM293.638 279C293.335 279.063 293.035 279.088 292.738 279.075C292.445 279.062 292.181 278.998 291.948 278.885C291.718 278.772 291.543 278.595 291.423 278.355C291.326 278.155 291.273 277.953 291.263 277.75C291.256 277.543 291.253 277.308 291.253 277.045V272.1H291.983V277.015C291.983 277.242 291.985 277.432 291.988 277.585C291.995 277.735 292.03 277.868 292.093 277.985C292.213 278.208 292.403 278.342 292.663 278.385C292.926 278.428 293.251 278.418 293.638 278.355V279ZM290.098 274.23V273.6H293.638V274.23H290.098ZM298.602 279V276.245C298.602 275.945 298.574 275.67 298.517 275.42C298.46 275.167 298.369 274.947 298.242 274.76C298.119 274.57 297.957 274.423 297.757 274.32C297.56 274.217 297.32 274.165 297.037 274.165C296.777 274.165 296.547 274.21 296.347 274.3C296.15 274.39 295.984 274.52 295.847 274.69C295.714 274.857 295.612 275.06 295.542 275.3C295.472 275.54 295.437 275.813 295.437 276.12L294.917 276.005C294.917 275.452 295.014 274.987 295.207 274.61C295.4 274.233 295.667 273.948 296.007 273.755C296.347 273.562 296.737 273.465 297.177 273.465C297.5 273.465 297.782 273.515 298.022 273.615C298.265 273.715 298.47 273.85 298.637 274.02C298.807 274.19 298.944 274.385 299.047 274.605C299.15 274.822 299.225 275.053 299.272 275.3C299.319 275.543 299.342 275.787 299.342 276.03V279H298.602ZM294.697 279V271.8H295.362V275.865H295.437V279H294.697ZM305.011 271.655C305.465 271.655 305.875 271.765 306.241 271.985C306.611 272.202 306.905 272.498 307.121 272.875C307.338 273.248 307.446 273.668 307.446 274.135V276.635C307.446 277.115 307.338 277.545 307.121 277.925C306.905 278.305 306.608 278.605 306.231 278.825C305.858 279.042 305.433 279.15 304.956 279.15C304.546 279.15 304.166 279.06 303.816 278.88C303.47 278.697 303.183 278.445 302.956 278.125L303.516 277.66C303.67 277.897 303.873 278.087 304.126 278.23C304.383 278.373 304.66 278.445 304.956 278.445C305.296 278.445 305.596 278.365 305.856 278.205C306.12 278.042 306.326 277.828 306.476 277.565C306.63 277.298 306.706 277.01 306.706 276.7V275.13L306.886 275.34C306.68 275.67 306.405 275.937 306.061 276.14C305.721 276.343 305.348 276.445 304.941 276.445C304.498 276.445 304.096 276.338 303.736 276.125C303.38 275.912 303.096 275.625 302.886 275.265C302.68 274.905 302.576 274.503 302.576 274.06C302.576 273.617 302.686 273.213 302.906 272.85C303.126 272.483 303.421 272.193 303.791 271.98C304.161 271.763 304.568 271.655 305.011 271.655ZM305.011 272.365C304.698 272.365 304.413 272.442 304.156 272.595C303.9 272.745 303.695 272.948 303.541 273.205C303.391 273.462 303.316 273.747 303.316 274.06C303.316 274.373 303.391 274.658 303.541 274.915C303.691 275.172 303.895 275.377 304.151 275.53C304.408 275.68 304.693 275.755 305.006 275.755C305.32 275.755 305.605 275.68 305.861 275.53C306.121 275.377 306.326 275.172 306.476 274.915C306.63 274.658 306.706 274.373 306.706 274.06C306.706 273.75 306.63 273.467 306.476 273.21C306.326 272.953 306.123 272.748 305.866 272.595C305.61 272.442 305.325 272.365 305.011 272.365ZM311.193 279.15C310.749 279.15 310.349 279.047 309.993 278.84C309.639 278.633 309.359 278.353 309.153 278C308.946 277.643 308.843 277.243 308.843 276.8V274C308.843 273.557 308.946 273.158 309.153 272.805C309.359 272.448 309.639 272.167 309.993 271.96C310.349 271.753 310.749 271.65 311.193 271.65C311.636 271.65 312.034 271.753 312.388 271.96C312.744 272.167 313.026 272.448 313.233 272.805C313.439 273.158 313.543 273.557 313.543 274V276.8C313.543 277.243 313.439 277.643 313.233 278C313.026 278.353 312.744 278.633 312.388 278.84C312.034 279.047 311.636 279.15 311.193 279.15ZM311.193 278.44C311.489 278.44 311.759 278.368 312.003 278.225C312.246 278.078 312.439 277.883 312.583 277.64C312.726 277.397 312.798 277.128 312.798 276.835V273.965C312.798 273.668 312.726 273.398 312.583 273.155C312.439 272.912 312.246 272.718 312.003 272.575C311.759 272.428 311.489 272.355 311.193 272.355C310.896 272.355 310.626 272.428 310.383 272.575C310.139 272.718 309.946 272.912 309.803 273.155C309.659 273.398 309.588 273.668 309.588 273.965V276.835C309.588 277.128 309.659 277.397 309.803 277.64C309.946 277.883 310.139 278.078 310.383 278.225C310.626 278.368 310.896 278.44 311.193 278.44ZM315.086 279V278.145H315.941V279H315.086ZM319.92 279.15C319.47 279.15 319.06 279.042 318.69 278.825C318.323 278.605 318.03 278.308 317.81 277.935C317.593 277.558 317.485 277.135 317.485 276.665V274.17C317.485 273.687 317.593 273.257 317.81 272.88C318.027 272.5 318.322 272.202 318.695 271.985C319.072 271.765 319.498 271.655 319.975 271.655C320.385 271.655 320.765 271.745 321.115 271.925C321.468 272.105 321.757 272.357 321.98 272.68L321.415 273.145C321.262 272.905 321.058 272.713 320.805 272.57C320.552 272.427 320.275 272.355 319.975 272.355C319.638 272.355 319.338 272.437 319.075 272.6C318.812 272.763 318.605 272.978 318.455 273.245C318.305 273.508 318.23 273.795 318.23 274.105V275.675L318.045 275.465C318.255 275.135 318.53 274.868 318.87 274.665C319.213 274.462 319.587 274.36 319.99 274.36C320.437 274.36 320.838 274.467 321.195 274.68C321.552 274.89 321.835 275.175 322.045 275.535C322.255 275.895 322.36 276.298 322.36 276.745C322.36 277.188 322.248 277.592 322.025 277.955C321.805 278.318 321.51 278.608 321.14 278.825C320.773 279.042 320.367 279.15 319.92 279.15ZM319.92 278.435C320.233 278.435 320.518 278.36 320.775 278.21C321.035 278.06 321.24 277.857 321.39 277.6C321.543 277.343 321.62 277.058 321.62 276.745C321.62 276.432 321.543 276.147 321.39 275.89C321.24 275.63 321.037 275.425 320.78 275.275C320.523 275.122 320.238 275.045 319.925 275.045C319.612 275.045 319.327 275.122 319.07 275.275C318.813 275.425 318.608 275.63 318.455 275.89C318.305 276.147 318.23 276.432 318.23 276.745C318.23 277.055 318.305 277.338 318.455 277.595C318.605 277.852 318.808 278.057 319.065 278.21C319.322 278.36 319.607 278.435 319.92 278.435ZM324.386 279L323.886 278.5L330.601 271.8L331.101 272.295L324.386 279ZM329.601 279.15C329.271 279.15 328.97 279.07 328.696 278.91C328.426 278.747 328.21 278.53 328.046 278.26C327.883 277.987 327.801 277.683 327.801 277.35C327.801 277.023 327.885 276.723 328.051 276.45C328.218 276.177 328.438 275.958 328.711 275.795C328.985 275.632 329.281 275.55 329.601 275.55C329.931 275.55 330.233 275.632 330.506 275.795C330.78 275.955 330.996 276.172 331.156 276.445C331.32 276.715 331.401 277.017 331.401 277.35C331.401 277.683 331.32 277.987 331.156 278.26C330.996 278.53 330.78 278.747 330.506 278.91C330.233 279.07 329.931 279.15 329.601 279.15ZM329.601 278.485C329.805 278.485 329.993 278.433 330.166 278.33C330.34 278.227 330.478 278.09 330.581 277.92C330.685 277.747 330.736 277.557 330.736 277.35C330.736 277.143 330.685 276.955 330.581 276.785C330.478 276.612 330.34 276.473 330.166 276.37C329.993 276.267 329.805 276.215 329.601 276.215C329.395 276.215 329.205 276.267 329.031 276.37C328.861 276.473 328.723 276.612 328.616 276.785C328.513 276.955 328.461 277.143 328.461 277.35C328.461 277.557 328.513 277.747 328.616 277.92C328.723 278.09 328.861 278.227 329.031 278.33C329.205 278.433 329.395 278.485 329.601 278.485ZM325.386 275.25C325.056 275.25 324.755 275.17 324.481 275.01C324.208 274.847 323.99 274.63 323.826 274.36C323.666 274.087 323.586 273.783 323.586 273.45C323.586 273.123 323.67 272.823 323.836 272.55C324.003 272.277 324.223 272.058 324.496 271.895C324.77 271.732 325.066 271.65 325.386 271.65C325.716 271.65 326.016 271.732 326.286 271.895C326.56 272.055 326.778 272.272 326.941 272.545C327.105 272.815 327.186 273.117 327.186 273.45C327.186 273.783 327.105 274.087 326.941 274.36C326.778 274.63 326.56 274.847 326.286 275.01C326.016 275.17 325.716 275.25 325.386 275.25ZM325.386 274.585C325.593 274.585 325.781 274.533 325.951 274.43C326.125 274.327 326.263 274.19 326.366 274.02C326.47 273.847 326.521 273.657 326.521 273.45C326.521 273.243 326.47 273.055 326.366 272.885C326.263 272.712 326.125 272.573 325.951 272.47C325.781 272.367 325.593 272.315 325.386 272.315C325.18 272.315 324.99 272.367 324.816 272.47C324.646 272.573 324.51 272.712 324.406 272.885C324.303 273.055 324.251 273.243 324.251 273.45C324.251 273.657 324.303 273.847 324.406 274.02C324.51 274.19 324.646 274.327 324.816 274.43C324.99 274.533 325.18 274.585 325.386 274.585Z" fill="#666666"/>
<rect x="86" y="230" width="252" height="20" rx="8" fill="#B0B030" fill-opacity="0.08"/>
<rect x="162" y="230" width="1" height="20" fill="#B0B030"/>
<rect x="165.5" y="230" width="1" height="20" fill="#B0B030"/>
<rect x="169" y="230" width="1" height="20" fill="#B0B030"/>
<rect x="172.5" y="230" width="1" height="20" fill="#B0B030"/>
<rect x="176" y="230" width="1" height="20" fill="#B0B030"/>
<rect x="179.5" y="230" width="1" height="20" fill="#B0B030"/>
<rect x="183" y="230" width="1" height="20" fill="#B0B030"/>
<rect x="186.5" y="230" width="1" height="20" fill="#B0B030"/>
<rect x="190" y="230" width="1" height="20" fill="#B0B030"/>
<rect x="193.5" y="230" width="1" height="20" fill="#B0B030"/>
<rect x="197" y="230" width="1" height="20" fill="#B0B030"/>
<rect x="200.5" y="230" width="1" height="20" fill="#B0B030"/>
<rect x="204" y="230" width="1" height="20" fill="#B0B030"/>
<rect x="207.5" y="230" width="1" height="20" fill="#B0B030"/>
<rect x="211" y="230" width="1" height="20" fill="#B0B030"/>
<rect x="214.5" y="230" width="1" height="20" fill="#B0B030"/>
<rect x="218" y="230" width="1" height="20" fill="#B0B030"/>
<rect x="221.5" y="230" width="1" height="20" fill="#B0B030"/>
<rect x="225" y="230" width="1" height="20" fill="#B0B030"/>
<rect x="228.5" y="230" width="1" height="20" fill="#B0B030"/>
<rect x="232" y="230" width="1" height="20" fill="#B0B030"/>
<rect x="235.5" y="230" width="1" height="20" fill="#B0B030"/>
<rect x="239" y="230" width="1" height="20" fill="#B0B030"/>
<rect x="242.5" y="230" width="1" height="20" fill="#B0B030"/>
<rect x="246" y="230" width="1" height="20" fill="#B0B030"/>
<rect x="249.5" y="230" width="1" height="20" fill="#B0B030"/>
<rect x="-0.25" y="0.25" width="0.5" height="83.5" rx="0.25" transform="matrix(-1 0 0 1 259.5 174)" stroke="black" stroke-width="0.5"/>
<path d="M165.633 219.386V217.769H166.879V219.386H165.633ZM165.633 208.151V206.527H166.879V208.151H165.633ZM166.354 218.21C165.673 218.21 165.059 218.089 164.513 217.846C163.972 217.599 163.526 217.251 163.176 216.803C162.826 216.35 162.597 215.818 162.49 215.207L163.715 215.004C163.864 215.625 164.179 216.117 164.66 216.481C165.145 216.845 165.729 217.027 166.41 217.027C167.096 217.027 167.651 216.861 168.076 216.53C168.501 216.199 168.713 215.772 168.713 215.249C168.713 214.866 168.599 214.558 168.37 214.325C168.146 214.092 167.768 213.893 167.236 213.73L164.933 213.016C163.556 212.587 162.868 211.765 162.868 210.552C162.868 209.983 163.006 209.486 163.281 209.061C163.561 208.632 163.951 208.3 164.45 208.067C164.954 207.829 165.54 207.712 166.207 207.717C166.856 207.722 167.434 207.843 167.943 208.081C168.452 208.314 168.872 208.65 169.203 209.089C169.539 209.528 169.765 210.053 169.882 210.664L168.622 210.895C168.557 210.498 168.412 210.151 168.188 209.852C167.969 209.553 167.689 209.322 167.348 209.159C167.007 208.991 166.625 208.905 166.2 208.9C165.803 208.895 165.446 208.961 165.129 209.096C164.816 209.231 164.569 209.42 164.387 209.663C164.205 209.906 164.114 210.183 164.114 210.496C164.114 210.837 164.24 211.126 164.492 211.364C164.749 211.597 165.15 211.798 165.696 211.966L167.586 212.526C168.417 212.773 169.016 213.107 169.385 213.527C169.754 213.942 169.938 214.498 169.938 215.193C169.938 215.795 169.789 216.322 169.49 216.775C169.196 217.228 168.778 217.58 168.237 217.832C167.7 218.084 167.073 218.21 166.354 218.21ZM174.699 207.717C175.343 207.717 175.924 207.871 176.442 208.179C176.96 208.487 177.371 208.907 177.674 209.439C177.982 209.971 178.136 210.575 178.136 211.252V214.605C178.136 215.31 177.984 215.933 177.681 216.474C177.378 217.015 176.958 217.44 176.421 217.748C175.889 218.056 175.278 218.21 174.587 218.21C174.036 218.21 173.521 218.096 173.04 217.867C172.564 217.638 172.16 217.314 171.829 216.894L172.76 216.068C172.965 216.357 173.229 216.591 173.551 216.768C173.873 216.941 174.218 217.027 174.587 217.027C175.035 217.027 175.429 216.92 175.77 216.705C176.115 216.49 176.384 216.21 176.575 215.865C176.771 215.52 176.869 215.146 176.869 214.745V212.722L177.142 213.03C176.853 213.45 176.482 213.786 176.029 214.038C175.576 214.29 175.084 214.416 174.552 214.416C173.927 214.416 173.367 214.269 172.872 213.975C172.377 213.681 171.985 213.284 171.696 212.785C171.407 212.281 171.262 211.716 171.262 211.091C171.262 210.466 171.418 209.899 171.731 209.39C172.044 208.877 172.459 208.471 172.977 208.172C173.5 207.869 174.074 207.717 174.699 207.717ZM174.699 208.921C174.298 208.921 173.931 209.019 173.6 209.215C173.273 209.406 173.012 209.668 172.816 209.999C172.62 210.326 172.522 210.69 172.522 211.091C172.522 211.492 172.618 211.859 172.809 212.19C173.005 212.517 173.266 212.778 173.593 212.974C173.924 213.17 174.291 213.268 174.692 213.268C175.093 213.268 175.46 213.17 175.791 212.974C176.122 212.778 176.384 212.517 176.575 212.19C176.771 211.859 176.869 211.492 176.869 211.091C176.869 210.694 176.771 210.333 176.575 210.006C176.384 209.675 176.122 209.411 175.791 209.215C175.464 209.019 175.1 208.921 174.699 208.921ZM180.102 218V216.628H181.474V218H180.102ZM188.006 218V216.145H183.372V214.962L186.697 207.92H188.111L184.786 214.962H188.006V212.127H189.266V214.962H190.316V216.145H189.266V218H188.006ZM195.084 207.717C195.728 207.717 196.309 207.871 196.827 208.179C197.345 208.487 197.755 208.907 198.059 209.439C198.367 209.971 198.521 210.575 198.521 211.252V214.605C198.521 215.31 198.369 215.933 198.066 216.474C197.762 217.015 197.342 217.44 196.806 217.748C196.274 218.056 195.662 218.21 194.972 218.21C194.421 218.21 193.905 218.096 193.425 217.867C192.949 217.638 192.545 217.314 192.214 216.894L193.145 216.068C193.35 216.357 193.614 216.591 193.936 216.768C194.258 216.941 194.603 217.027 194.972 217.027C195.42 217.027 195.814 216.92 196.155 216.705C196.5 216.49 196.768 216.21 196.96 215.865C197.156 215.52 197.254 215.146 197.254 214.745V212.722L197.527 213.03C197.237 213.45 196.866 213.786 196.414 214.038C195.961 214.29 195.469 214.416 194.937 214.416C194.311 214.416 193.751 214.269 193.257 213.975C192.762 213.681 192.37 213.284 192.081 212.785C191.791 212.281 191.647 211.716 191.647 211.091C191.647 210.466 191.803 209.899 192.116 209.39C192.428 208.877 192.844 208.471 193.362 208.172C193.884 207.869 194.458 207.717 195.084 207.717ZM195.084 208.921C194.682 208.921 194.316 209.019 193.985 209.215C193.658 209.406 193.397 209.668 193.201 209.999C193.005 210.326 192.907 210.69 192.907 211.091C192.907 211.492 193.002 211.859 193.194 212.19C193.39 212.517 193.651 212.778 193.978 212.974C194.309 213.17 194.675 213.268 195.077 213.268C195.478 213.268 195.844 213.17 196.176 212.974C196.507 212.778 196.768 212.517 196.96 212.19C197.156 211.859 197.254 211.492 197.254 211.091C197.254 210.694 197.156 210.333 196.96 210.006C196.768 209.675 196.507 209.411 196.176 209.215C195.849 209.019 195.485 208.921 195.084 208.921ZM203.919 218.21C203.28 218.21 202.699 218.056 202.176 217.748C201.658 217.44 201.245 217.02 200.937 216.488C200.634 215.951 200.482 215.347 200.482 214.675V211.322C200.482 210.617 200.634 209.994 200.937 209.453C201.245 208.907 201.665 208.482 202.197 208.179C202.734 207.871 203.345 207.717 204.031 207.717C204.586 207.717 205.102 207.831 205.578 208.06C206.059 208.284 206.462 208.608 206.789 209.033L205.858 209.859C205.657 209.565 205.396 209.332 205.074 209.159C204.752 208.986 204.404 208.9 204.031 208.9C203.588 208.9 203.193 209.007 202.848 209.222C202.507 209.432 202.239 209.712 202.043 210.062C201.847 210.407 201.749 210.781 201.749 211.182V213.205L201.476 212.897C201.77 212.477 202.143 212.141 202.596 211.889C203.049 211.637 203.539 211.511 204.066 211.511C204.691 211.511 205.251 211.658 205.746 211.952C206.245 212.246 206.637 212.645 206.922 213.149C207.211 213.648 207.356 214.211 207.356 214.836C207.356 215.461 207.2 216.028 206.887 216.537C206.574 217.046 206.157 217.452 205.634 217.755C205.116 218.058 204.544 218.21 203.919 218.21ZM203.919 217.006C204.32 217.006 204.687 216.91 205.018 216.719C205.349 216.523 205.611 216.262 205.802 215.935C205.998 215.604 206.096 215.237 206.096 214.836C206.096 214.435 205.998 214.068 205.802 213.737C205.611 213.406 205.349 213.144 205.018 212.953C204.691 212.757 204.327 212.659 203.926 212.659C203.525 212.659 203.158 212.757 202.827 212.953C202.5 213.144 202.239 213.406 202.043 213.737C201.847 214.068 201.749 214.435 201.749 214.836C201.749 215.233 201.845 215.597 202.036 215.928C202.232 216.255 202.493 216.516 202.82 216.712C203.151 216.908 203.518 217.006 203.919 217.006ZM209.401 218V216.628H210.773V218H209.401ZM216.353 218.21C215.699 218.21 215.116 218.063 214.603 217.769C214.094 217.47 213.69 217.067 213.392 216.558C213.098 216.045 212.951 215.461 212.951 214.808V211.112C212.951 210.459 213.098 209.875 213.392 209.362C213.69 208.849 214.094 208.445 214.603 208.151C215.116 207.857 215.699 207.71 216.353 207.71C217.006 207.71 217.589 207.857 218.103 208.151C218.616 208.445 219.02 208.849 219.314 209.362C219.608 209.875 219.755 210.459 219.755 211.112V214.808C219.755 215.461 219.608 216.045 219.314 216.558C219.02 217.067 218.616 217.47 218.103 217.769C217.589 218.063 217.006 218.21 216.353 218.21ZM216.353 217.013C216.749 217.013 217.109 216.917 217.431 216.726C217.753 216.535 218.009 216.278 218.201 215.956C218.392 215.629 218.488 215.27 218.488 214.878V211.035C218.488 210.638 218.392 210.279 218.201 209.957C218.009 209.635 217.753 209.378 217.431 209.187C217.109 208.996 216.749 208.9 216.353 208.9C215.961 208.9 215.601 208.996 215.275 209.187C214.953 209.378 214.696 209.635 214.505 209.957C214.313 210.279 214.218 210.638 214.218 211.035V214.878C214.218 215.27 214.313 215.629 214.505 215.956C214.696 216.278 214.953 216.535 215.275 216.726C215.601 216.917 215.961 217.013 216.353 217.013ZM225.116 218.21C224.463 218.21 223.88 218.063 223.366 217.769C222.858 217.47 222.454 217.067 222.155 216.558C221.861 216.045 221.714 215.461 221.714 214.808V211.112C221.714 210.459 221.861 209.875 222.155 209.362C222.454 208.849 222.858 208.445 223.366 208.151C223.88 207.857 224.463 207.71 225.116 207.71C225.77 207.71 226.353 207.857 226.866 208.151C227.38 208.445 227.783 208.849 228.077 209.362C228.371 209.875 228.518 210.459 228.518 211.112V214.808C228.518 215.461 228.371 216.045 228.077 216.558C227.783 217.067 227.38 217.47 226.866 217.769C226.353 218.063 225.77 218.21 225.116 218.21ZM225.116 217.013C225.513 217.013 225.872 216.917 226.194 216.726C226.516 216.535 226.773 216.278 226.964 215.956C227.156 215.629 227.251 215.27 227.251 214.878V211.035C227.251 210.638 227.156 210.279 226.964 209.957C226.773 209.635 226.516 209.378 226.194 209.187C225.872 208.996 225.513 208.9 225.116 208.9C224.724 208.9 224.365 208.996 224.038 209.187C223.716 209.378 223.46 209.635 223.268 209.957C223.077 210.279 222.981 210.638 222.981 211.035V214.878C222.981 215.27 223.077 215.629 223.268 215.956C223.46 216.278 223.716 216.535 224.038 216.726C224.365 216.917 224.724 217.013 225.116 217.013Z" fill="black"/>
<rect x="0.25" y="42.25" width="351.5" height="0.5" rx="0.25" stroke="black" stroke-opacity="0.2" stroke-width="0.5"/>
<circle cx="318" cy="27" r="2" fill="black"/>
<circle cx="324" cy="27" r="2" fill="black"/>
<circle cx="330" cy="27" r="2" fill="black"/>
<path d="M286.213 25.7866V25.7866C287.156 26.7292 288.684 26.7292 289.627 25.7866V25.7866" stroke="black" stroke-miterlimit="10" stroke-linecap="round" stroke-linejoin="round"/>
<path d="M287.92 20.6666V27.4466" stroke="black" stroke-miterlimit="10" stroke-linecap="round" stroke-linejoin="round"/>
<path d="M293.333 26.12C293.333 29.0667 291.333 31.4533 288 31.4533C284.667 31.4533 282.667 29.0667 282.667 26.12" stroke="black" stroke-miterlimit="10" stroke-linecap="round" stroke-linejoin="round"/>
<path d="M20.84 31V22.36H26.24V23.206H21.722V26.194H25.52V27.04H21.722V30.154H26.24V31H20.84ZM26.9638 31L29.4958 27.724L27.0178 24.52H28.0738L30.0117 27.046L31.9318 24.52H32.9878L30.5098 27.724L33.0478 31H31.9858L30.0117 28.402L28.0258 31H26.9638ZM36.9219 31.18C36.3259 31.18 35.8219 31.03 35.4099 30.73C34.9979 30.426 34.6859 30.016 34.4739 29.5C34.2619 28.98 34.1559 28.398 34.1559 27.754C34.1559 27.098 34.2619 26.514 34.4739 26.002C34.6899 25.486 35.0059 25.08 35.4219 24.784C35.8379 24.488 36.3499 24.34 36.9579 24.34C37.5499 24.34 38.0579 24.49 38.4819 24.79C38.9059 25.09 39.2299 25.498 39.4539 26.014C39.6819 26.53 39.7959 27.11 39.7959 27.754C39.7959 28.402 39.6819 28.984 39.4539 29.5C39.2259 30.016 38.8979 30.426 38.4699 30.73C38.0419 31.03 37.5259 31.18 36.9219 31.18ZM34.0059 33.88V24.52H34.7979V29.398H34.8939V33.88H34.0059ZM36.8319 30.358C37.2839 30.358 37.6599 30.244 37.9599 30.016C38.2599 29.788 38.4839 29.478 38.6319 29.086C38.7839 28.69 38.8599 28.246 38.8599 27.754C38.8599 27.266 38.7859 26.826 38.6379 26.434C38.4899 26.042 38.2639 25.732 37.9599 25.504C37.6599 25.276 37.2779 25.162 36.8139 25.162C36.3619 25.162 35.9859 25.272 35.6859 25.492C35.3899 25.712 35.1679 26.018 35.0199 26.41C34.8719 26.798 34.7979 27.246 34.7979 27.754C34.7979 28.254 34.8719 28.702 35.0199 29.098C35.1679 29.49 35.3919 29.798 35.6919 30.022C35.9919 30.246 36.3719 30.358 36.8319 30.358ZM42.9674 31.18C42.4794 31.18 42.0694 31.092 41.7374 30.916C41.4094 30.74 41.1634 30.506 40.9994 30.214C40.8354 29.922 40.7534 29.604 40.7534 29.26C40.7534 28.908 40.8234 28.608 40.9634 28.36C41.1074 28.108 41.3014 27.902 41.5454 27.742C41.7934 27.582 42.0794 27.46 42.4034 27.376C42.7314 27.296 43.0934 27.226 43.4894 27.166C43.8894 27.102 44.2794 27.048 44.6594 27.004C45.0434 26.956 45.3794 26.91 45.6674 26.866L45.3554 27.058C45.3674 26.418 45.2434 25.944 44.9834 25.636C44.7234 25.328 44.2714 25.174 43.6274 25.174C43.1834 25.174 42.8074 25.274 42.4994 25.474C42.1954 25.674 41.9814 25.99 41.8574 26.422L40.9994 26.17C41.1474 25.59 41.4454 25.14 41.8934 24.82C42.3414 24.5 42.9234 24.34 43.6394 24.34C44.2314 24.34 44.7334 24.452 45.1454 24.676C45.5614 24.896 45.8554 25.216 46.0274 25.636C46.1074 25.824 46.1594 26.034 46.1834 26.266C46.2074 26.498 46.2194 26.734 46.2194 26.974V31H45.4334V29.374L45.6614 29.47C45.4414 30.026 45.0994 30.45 44.6354 30.742C44.1714 31.034 43.6154 31.18 42.9674 31.18ZM43.0694 30.418C43.4814 30.418 43.8414 30.344 44.1494 30.196C44.4574 30.048 44.7054 29.846 44.8934 29.59C45.0814 29.33 45.2034 29.038 45.2594 28.714C45.3074 28.506 45.3334 28.278 45.3374 28.03C45.3414 27.778 45.3434 27.59 45.3434 27.466L45.6794 27.64C45.3794 27.68 45.0534 27.72 44.7014 27.76C44.3534 27.8 44.0094 27.846 43.6694 27.898C43.3334 27.95 43.0294 28.012 42.7574 28.084C42.5734 28.136 42.3954 28.21 42.2234 28.306C42.0514 28.398 41.9094 28.522 41.7974 28.678C41.6894 28.834 41.6354 29.028 41.6354 29.26C41.6354 29.448 41.6814 29.63 41.7734 29.806C41.8694 29.982 42.0214 30.128 42.2294 30.244C42.4414 30.36 42.7214 30.418 43.0694 30.418ZM52.4614 31V27.694C52.4614 27.334 52.4274 27.004 52.3594 26.704C52.2914 26.4 52.1814 26.136 52.0294 25.912C51.8814 25.684 51.6874 25.508 51.4474 25.384C51.2114 25.26 50.9234 25.198 50.5834 25.198C50.2714 25.198 49.9954 25.252 49.7554 25.36C49.5194 25.468 49.3194 25.624 49.1554 25.828C48.9954 26.028 48.8734 26.272 48.7894 26.56C48.7054 26.848 48.6634 27.176 48.6634 27.544L48.0394 27.406C48.0394 26.742 48.1554 26.184 48.3874 25.732C48.6194 25.28 48.9394 24.938 49.3474 24.706C49.7554 24.474 50.2234 24.358 50.7514 24.358C51.1394 24.358 51.4774 24.418 51.7654 24.538C52.0574 24.658 52.3034 24.82 52.5034 25.024C52.7074 25.228 52.8714 25.462 52.9954 25.726C53.1194 25.986 53.2094 26.264 53.2654 26.56C53.3214 26.852 53.3494 27.144 53.3494 27.436V31H52.4614ZM47.7754 31V24.52H48.5734V26.116H48.6634V31H47.7754ZM57.3244 31.174C56.5644 31.174 55.9384 31.01 55.4464 30.682C54.9584 30.354 54.6584 29.898 54.5464 29.314L55.4464 29.164C55.5424 29.532 55.7604 29.826 56.1004 30.046C56.4444 30.262 56.8684 30.37 57.3724 30.37C57.8644 30.37 58.2524 30.268 58.5364 30.064C58.8204 29.856 58.9624 29.574 58.9624 29.218C58.9624 29.018 58.9164 28.856 58.8244 28.732C58.7364 28.604 58.5544 28.486 58.2784 28.378C58.0024 28.27 57.5904 28.142 57.0424 27.994C56.4544 27.834 55.9944 27.674 55.6624 27.514C55.3304 27.354 55.0944 27.17 54.9544 26.962C54.8144 26.75 54.7444 26.492 54.7444 26.188C54.7444 25.82 54.8484 25.498 55.0564 25.222C55.2644 24.942 55.5524 24.726 55.9204 24.574C56.2884 24.418 56.7164 24.34 57.2044 24.34C57.6924 24.34 58.1284 24.42 58.5124 24.58C58.9004 24.736 59.2124 24.956 59.4484 25.24C59.6844 25.524 59.8244 25.854 59.8684 26.23L58.9684 26.392C58.9084 26.012 58.7184 25.712 58.3984 25.492C58.0824 25.268 57.6804 25.152 57.1924 25.144C56.7324 25.132 56.3584 25.22 56.0704 25.408C55.7824 25.592 55.6384 25.838 55.6384 26.146C55.6384 26.318 55.6904 26.466 55.7944 26.59C55.8984 26.71 56.0864 26.824 56.3584 26.932C56.6344 27.04 57.0264 27.158 57.5344 27.286C58.1304 27.438 58.5984 27.598 58.9384 27.766C59.2784 27.934 59.5204 28.132 59.6644 28.36C59.8084 28.588 59.8804 28.87 59.8804 29.206C59.8804 29.818 59.6524 30.3 59.1964 30.652C58.7444 31 58.1204 31.174 57.3244 31.174ZM61.3311 23.29V22.3H62.2131V23.29H61.3311ZM61.3311 31V24.52H62.2131V31H61.3311ZM66.7179 31.18C66.0739 31.18 65.5239 31.034 65.0679 30.742C64.6119 30.45 64.2619 30.046 64.0179 29.53C63.7739 29.014 63.6519 28.422 63.6519 27.754C63.6519 27.074 63.7759 26.478 64.0239 25.966C64.2719 25.454 64.6239 25.056 65.0799 24.772C65.5399 24.484 66.0859 24.34 66.7179 24.34C67.3659 24.34 67.9179 24.486 68.3739 24.778C68.8339 25.066 69.1839 25.468 69.4239 25.984C69.6679 26.496 69.7899 27.086 69.7899 27.754C69.7899 28.434 69.6679 29.032 69.4239 29.548C69.1799 30.06 68.8279 30.46 68.3679 30.748C67.9079 31.036 67.3579 31.18 66.7179 31.18ZM66.7179 30.334C67.4379 30.334 67.9739 30.096 68.3259 29.62C68.6779 29.14 68.8539 28.518 68.8539 27.754C68.8539 26.97 68.6759 26.346 68.3199 25.882C67.9679 25.418 67.4339 25.186 66.7179 25.186C66.2339 25.186 65.8339 25.296 65.5179 25.516C65.2059 25.732 64.9719 26.034 64.8159 26.422C64.6639 26.806 64.5879 27.25 64.5879 27.754C64.5879 28.534 64.7679 29.16 65.1279 29.632C65.4879 30.1 66.0179 30.334 66.7179 30.334ZM75.7934 31V27.694C75.7934 27.334 75.7594 27.004 75.6914 26.704C75.6234 26.4 75.5134 26.136 75.3614 25.912C75.2134 25.684 75.0194 25.508 74.7794 25.384C74.5434 25.26 74.2554 25.198 73.9154 25.198C73.6034 25.198 73.3274 25.252 73.0874 25.36C72.8514 25.468 72.6514 25.624 72.4874 25.828C72.3274 26.028 72.2054 26.272 72.1214 26.56C72.0374 26.848 71.9954 27.176 71.9954 27.544L71.3714 27.406C71.3714 26.742 71.4874 26.184 71.7194 25.732C71.9514 25.28 72.2714 24.938 72.6794 24.706C73.0874 24.474 73.5554 24.358 74.0834 24.358C74.4714 24.358 74.8094 24.418 75.0974 24.538C75.3894 24.658 75.6354 24.82 75.8354 25.024C76.0394 25.228 76.2034 25.462 76.3274 25.726C76.4514 25.986 76.5414 26.264 76.5974 26.56C76.6534 26.852 76.6814 27.144 76.6814 27.436V31H75.7934ZM71.1074 31V24.52H71.9054V26.116H71.9954V31H71.1074Z" fill="black"/>
<rect x="20" y="115" width="252" height="20" rx="8" fill="#255446" fill-opacity="0.08"/>
<rect x="96" y="115" width="0.8" height="20" fill="#255446"/>
<rect x="100" y="115" width="0.8" height="20" fill="#255446"/>
<rect x="104" y="115" width="0.8" height="20" fill="#255446"/>
<rect x="108" y="115" width="0.8" height="20" fill="#255446"/>
<rect x="112" y="115" width="0.8" height="20" fill="#255446"/>
<rect x="116" y="115" width="0.8" height="20" fill="#255446"/>
<rect x="120" y="115" width="0.8" height="20" fill="#255446"/>
<rect x="124" y="115" width="0.8" height="20" fill="#255446"/>
<rect x="128" y="115" width="0.8" height="20" fill="#255446"/>
<rect x="132" y="115" width="0.8" height="20" fill="#255446"/>
<rect x="136" y="115" width="0.8" height="20" fill="#255446"/>
<rect x="140" y="115" width="0.8" height="20" fill="#255446"/>
<rect x="144" y="115" width="0.8" height="20" fill="#255446"/>
<rect x="148" y="115" width="0.8" height="20" fill="#255446"/>
<rect x="152" y="115" width="0.8" height="20" fill="#255446"/>
<rect x="156" y="115" width="0.8" height="20" fill="#255446"/>
<rect x="160" y="115" width="0.8" height="20" fill="#255446"/>
<rect x="164" y="115" width="0.8" height="20" fill="#255446"/>
<rect x="168" y="115" width="0.8" height="20" fill="#255446"/>
<rect x="172" y="115" width="0.8" height="20" fill="#255446"/>
<rect x="176" y="115" width="0.8" height="20" fill="#255446"/>
<rect x="180" y="115" width="0.8" height="20" fill="#255446"/>
<rect x="184" y="115" width="0.8" height="20" fill="#255446"/>
<rect x="188" y="115" width="0.8" height="20" fill="#255446"/>
<rect x="192" y="115" width="0.8" height="20" fill="#255446"/>
<rect x="196" y="115" width="0.8" height="20" fill="#255446"/>
<rect x="200" y="115" width="0.8" height="20" fill="#255446"/>
<rect x="204" y="115" width="0.8" height="20" fill="#255446"/>
<rect x="208" y="115" width="0.8" height="20" fill="#255446"/>
<rect x="212" y="115" width="0.8" height="20" fill="#255446"/>
<rect x="216" y="115" width="0.8" height="20" fill="#255446"/>
<rect x="220" y="115" width="0.8" height="20" fill="#255446"/>
<rect x="-0.25" y="0.25" width="0.5" height="83.5" rx="0.25" transform="matrix(-1 0 0 1 87.5 59)" stroke="black" stroke-width="0.5"/>
<path d="M99.633 104.386V102.769H100.879V104.386H99.633ZM99.633 93.151V91.527H100.879V93.151H99.633ZM100.354 103.21C99.6727 103.21 99.059 103.089 98.513 102.846C97.9717 102.599 97.526 102.251 97.176 101.803C96.826 101.35 96.5973 100.818 96.49 100.207L97.715 100.004C97.8643 100.625 98.1793 101.117 98.66 101.481C99.1453 101.845 99.7287 102.027 100.41 102.027C101.096 102.027 101.651 101.861 102.076 101.53C102.501 101.199 102.713 100.772 102.713 100.249C102.713 99.8663 102.599 99.5583 102.37 99.325C102.146 99.0917 101.768 98.8933 101.236 98.73L98.933 98.016C97.5563 97.5867 96.868 96.7653 96.868 95.552C96.868 94.9827 97.0057 94.4857 97.281 94.061C97.561 93.6317 97.9507 93.3003 98.45 93.067C98.954 92.829 99.5397 92.7123 100.207 92.717C100.856 92.7217 101.434 92.843 101.943 93.081C102.452 93.3143 102.872 93.6503 103.203 94.089C103.539 94.5277 103.765 95.0527 103.882 95.664L102.622 95.895C102.557 95.4983 102.412 95.1507 102.188 94.852C101.969 94.5533 101.689 94.3223 101.348 94.159C101.007 93.991 100.625 93.9047 100.2 93.9C99.8033 93.8953 99.4463 93.9607 99.129 94.096C98.8163 94.2313 98.569 94.4203 98.387 94.663C98.205 94.9057 98.114 95.1833 98.114 95.496C98.114 95.8367 98.24 96.126 98.492 96.364C98.7487 96.5973 99.15 96.798 99.696 96.966L101.586 97.526C102.417 97.7733 103.016 98.107 103.385 98.527C103.754 98.9423 103.938 99.4977 103.938 100.193C103.938 100.795 103.789 101.322 103.49 101.775C103.196 102.228 102.778 102.58 102.237 102.832C101.7 103.084 101.073 103.21 100.354 103.21ZM107.159 103V94.299L105.262 95.447V94.054L107.159 92.92H108.426V103H107.159ZM114.491 103.21C113.838 103.21 113.255 103.063 112.741 102.769C112.233 102.47 111.829 102.067 111.53 101.558C111.236 101.045 111.089 100.461 111.089 99.808V96.112C111.089 95.4587 111.236 94.8753 111.53 94.362C111.829 93.8487 112.233 93.445 112.741 93.151C113.255 92.857 113.838 92.71 114.491 92.71C115.145 92.71 115.728 92.857 116.241 93.151C116.755 93.445 117.158 93.8487 117.452 94.362C117.746 94.8753 117.893 95.4587 117.893 96.112V99.808C117.893 100.461 117.746 101.045 117.452 101.558C117.158 102.067 116.755 102.47 116.241 102.769C115.728 103.063 115.145 103.21 114.491 103.21ZM114.491 102.013C114.888 102.013 115.247 101.917 115.569 101.726C115.891 101.535 116.148 101.278 116.339 100.956C116.531 100.629 116.626 100.27 116.626 99.878V96.035C116.626 95.6383 116.531 95.279 116.339 94.957C116.148 94.635 115.891 94.3783 115.569 94.187C115.247 93.9957 114.888 93.9 114.491 93.9C114.099 93.9 113.74 93.9957 113.413 94.187C113.091 94.3783 112.835 94.635 112.643 94.957C112.452 95.279 112.356 95.6383 112.356 96.035V99.878C112.356 100.27 112.452 100.629 112.643 100.956C112.835 101.278 113.091 101.535 113.413 101.726C113.74 101.917 114.099 102.013 114.491 102.013ZM120.077 103V101.628H121.449V103H120.077ZM123.346 102.993L123.353 101.873L127.826 97.848C128.2 97.512 128.449 97.1947 128.575 96.896C128.706 96.5927 128.771 96.2823 128.771 95.965C128.771 95.5777 128.683 95.2277 128.505 94.915C128.328 94.6023 128.085 94.355 127.777 94.173C127.474 93.991 127.129 93.9 126.741 93.9C126.34 93.9 125.983 93.9957 125.67 94.187C125.358 94.3737 125.11 94.6233 124.928 94.936C124.751 95.2487 124.665 95.5893 124.669 95.958H123.395C123.395 95.3233 123.542 94.7633 123.836 94.278C124.13 93.788 124.529 93.4053 125.033 93.13C125.542 92.85 126.118 92.71 126.762 92.71C127.388 92.71 127.948 92.8547 128.442 93.144C128.937 93.4287 129.327 93.8183 129.611 94.313C129.901 94.803 130.045 95.3583 130.045 95.979C130.045 96.4177 129.989 96.798 129.877 97.12C129.77 97.442 129.602 97.7407 129.373 98.016C129.145 98.2867 128.858 98.576 128.512 98.884L124.795 102.223L124.634 101.803H130.045V102.993H123.346ZM134.485 103.196C133.986 103.196 133.522 103.105 133.092 102.923C132.663 102.736 132.292 102.475 131.979 102.139C131.671 101.798 131.445 101.395 131.3 100.928L132.497 100.585C132.651 101.052 132.908 101.406 133.267 101.649C133.627 101.892 134.03 102.011 134.478 102.006C134.889 101.997 135.244 101.903 135.542 101.726C135.846 101.544 136.079 101.297 136.242 100.984C136.41 100.671 136.494 100.31 136.494 99.899C136.494 99.2737 136.308 98.7673 135.934 98.38C135.561 97.988 135.071 97.792 134.464 97.792C134.296 97.792 134.119 97.8153 133.932 97.862C133.75 97.9087 133.58 97.974 133.421 98.058L132.819 97.071L136.557 93.69L136.718 94.11H131.699V92.92H137.642V94.117L134.457 97.169L134.443 96.728C135.111 96.6813 135.694 96.791 136.193 97.057C136.693 97.323 137.08 97.7033 137.355 98.198C137.635 98.6927 137.775 99.2597 137.775 99.899C137.775 100.543 137.631 101.112 137.341 101.607C137.052 102.102 136.66 102.491 136.165 102.776C135.671 103.056 135.111 103.196 134.485 103.196ZM142.892 92.717C143.536 92.717 144.117 92.871 144.635 93.179C145.153 93.487 145.564 93.907 145.867 94.439C146.175 94.971 146.329 95.5753 146.329 96.252V99.605C146.329 100.31 146.178 100.933 145.874 101.474C145.571 102.015 145.151 102.44 144.614 102.748C144.082 103.056 143.471 103.21 142.78 103.21C142.23 103.21 141.714 103.096 141.233 102.867C140.757 102.638 140.354 102.314 140.022 101.894L140.953 101.068C141.159 101.357 141.422 101.591 141.744 101.768C142.066 101.941 142.412 102.027 142.78 102.027C143.228 102.027 143.623 101.92 143.963 101.705C144.309 101.49 144.577 101.21 144.768 100.865C144.964 100.52 145.062 100.146 145.062 99.745V97.722L145.335 98.03C145.046 98.45 144.675 98.786 144.222 99.038C143.77 99.29 143.277 99.416 142.745 99.416C142.12 99.416 141.56 99.269 141.065 98.975C140.571 98.681 140.179 98.2843 139.889 97.785C139.6 97.281 139.455 96.7163 139.455 96.091C139.455 95.4657 139.612 94.8987 139.924 94.39C140.237 93.8767 140.652 93.4707 141.17 93.172C141.693 92.8687 142.267 92.717 142.892 92.717ZM142.892 93.921C142.491 93.921 142.125 94.019 141.793 94.215C141.467 94.4063 141.205 94.6677 141.009 94.999C140.813 95.3257 140.715 95.6897 140.715 96.091C140.715 96.4923 140.811 96.8587 141.002 97.19C141.198 97.5167 141.46 97.778 141.786 97.974C142.118 98.17 142.484 98.268 142.885 98.268C143.287 98.268 143.653 98.17 143.984 97.974C144.316 97.778 144.577 97.5167 144.768 97.19C144.964 96.8587 145.062 96.4923 145.062 96.091C145.062 95.6943 144.964 95.3327 144.768 95.006C144.577 94.6747 144.316 94.411 143.984 94.215C143.658 94.019 143.294 93.921 142.892 93.921ZM148.296 103V101.628H149.668V103H148.296ZM155.247 103.21C154.594 103.21 154.011 103.063 153.497 102.769C152.989 102.47 152.585 102.067 152.286 101.558C151.992 101.045 151.845 100.461 151.845 99.808V96.112C151.845 95.4587 151.992 94.8753 152.286 94.362C152.585 93.8487 152.989 93.445 153.497 93.151C154.011 92.857 154.594 92.71 155.247 92.71C155.901 92.71 156.484 92.857 156.997 93.151C157.511 93.445 157.914 93.8487 158.208 94.362C158.502 94.8753 158.649 95.4587 158.649 96.112V99.808C158.649 100.461 158.502 101.045 158.208 101.558C157.914 102.067 157.511 102.47 156.997 102.769C156.484 103.063 155.901 103.21 155.247 103.21ZM155.247 102.013C155.644 102.013 156.003 101.917 156.325 101.726C156.647 101.535 156.904 101.278 157.095 100.956C157.287 100.629 157.382 100.27 157.382 99.878V96.035C157.382 95.6383 157.287 95.279 157.095 94.957C156.904 94.635 156.647 94.3783 156.325 94.187C156.003 93.9957 155.644 93.9 155.247 93.9C154.855 93.9 154.496 93.9957 154.169 94.187C153.847 94.3783 153.591 94.635 153.399 94.957C153.208 95.279 153.112 95.6383 153.112 96.035V99.878C153.112 100.27 153.208 100.629 153.399 100.956C153.591 101.278 153.847 101.535 154.169 101.726C154.496 101.917 154.855 102.013 155.247 102.013ZM164.011 103.21C163.358 103.21 162.774 103.063 162.261 102.769C161.752 102.47 161.349 102.067 161.05 101.558C160.756 101.045 160.609 100.461 160.609 99.808V96.112C160.609 95.4587 160.756 94.8753 161.05 94.362C161.349 93.8487 161.752 93.445 162.261 93.151C162.774 92.857 163.358 92.71 164.011 92.71C164.664 92.71 165.248 92.857 165.761 93.151C166.274 93.445 166.678 93.8487 166.972 94.362C167.266 94.8753 167.413 95.4587 167.413 96.112V99.808C167.413 100.461 167.266 101.045 166.972 101.558C166.678 102.067 166.274 102.47 165.761 102.769C165.248 103.063 164.664 103.21 164.011 103.21ZM164.011 102.013C164.408 102.013 164.767 101.917 165.089 101.726C165.411 101.535 165.668 101.278 165.859 100.956C166.05 100.629 166.146 100.27 166.146 99.878V96.035C166.146 95.6383 166.05 95.279 165.859 94.957C165.668 94.635 165.411 94.3783 165.089 94.187C164.767 93.9957 164.408 93.9 164.011 93.9C163.619 93.9 163.26 93.9957 162.933 94.187C162.611 94.3783 162.354 94.635 162.163 94.957C161.972 95.279 161.876 95.6383 161.876 96.035V99.878C161.876 100.27 161.972 100.629 162.163 100.956C162.354 101.278 162.611 101.535 162.933 101.726C163.26 101.917 163.619 102.013 164.011 102.013Z" fill="black"/>
</svg>
