<svg width="352" height="300" viewBox="0 0 352 300" fill="none" xmlns="http://www.w3.org/2000/svg">
<rect width="352" height="300" rx="8" fill="white"/>
<rect x="0.5" y="0.5" width="351" height="299" rx="7.5" stroke="black" stroke-opacity="0.1"/>
<rect x="300" y="181" width="28" height="65" fill="#DEE4D1"/>
<rect x="265" y="152" width="28" height="94" fill="#DEE4D1"/>
<rect x="230" y="210" width="28" height="36" fill="#DEE4D1"/>
<rect x="195" y="186" width="28" height="60" fill="#DEE4D1"/>
<rect x="160" y="152" width="28" height="94" fill="#DEE4D1"/>
<rect x="125" y="132" width="28" height="114" fill="#D9D9D9"/>
<rect x="90" y="175" width="28" height="71" fill="#AFBFAF"/>
<path d="M55 149.5H83V246H55V149.5Z" fill="#DEE4D1"/>
<rect x="20" y="171" width="28" height="75" fill="#DEE4D1"/>
<path d="M20 149H312" stroke="black" stroke-dasharray="2 2"/>
<path d="M125 132H153V246H125V132Z" fill="#DEE4D1"/>
<path d="M125 132H153V246H125V132Z" fill="#DEE4D1"/>
<path d="M151 132H152.5V246H151V132Z" fill="#AFBFAF"/>
<path d="M151 132H152.5V246H151V132Z" fill="#AFBFAF"/>
<path d="M146 132H147.5V246H146V132Z" fill="#AFBFAF"/>
<path d="M146 132H147.5V246H146V132Z" fill="#AFBFAF"/>
<path d="M141 132H142.5V246H141V132Z" fill="#AFBFAF"/>
<path d="M141 132H142.5V246H141V132Z" fill="#AFBFAF"/>
<path d="M136 132H137.5V246H136V132Z" fill="#AFBFAF"/>
<path d="M136 132H137.5V246H136V132Z" fill="#AFBFAF"/>
<path d="M131 132H132.5V246H131V132Z" fill="#AFBFAF"/>
<path d="M131 132H132.5V246H131V132Z" fill="#AFBFAF"/>
<path d="M126 132H127.5V246H126V132Z" fill="#AFBFAF"/>
<path d="M126 132H127.5V246H126V132Z" fill="#AFBFAF"/>
<path d="M21.544 264.116C21.16 264.116 20.8307 264.009 20.556 263.796C20.2813 263.583 20.096 263.297 20 262.94L20.588 262.8C20.636 263.011 20.7467 263.189 20.92 263.336C21.096 263.48 21.3027 263.552 21.54 263.552C21.6893 263.552 21.84 263.516 21.992 263.444C22.1467 263.372 22.268 263.253 22.356 263.088C22.4147 262.973 22.448 262.849 22.456 262.716C22.4667 262.58 22.472 262.417 22.472 262.228V258.24H23.064V262.228C23.064 262.388 23.0627 262.533 23.06 262.664C23.0573 262.792 23.0427 262.916 23.016 263.036C22.992 263.153 22.9453 263.272 22.876 263.392C22.7373 263.635 22.5507 263.816 22.316 263.936C22.084 264.056 21.8267 264.116 21.544 264.116ZM25.5069 264.12C25.1816 264.12 24.9083 264.061 24.6869 263.944C24.4683 263.827 24.3043 263.671 24.1949 263.476C24.0856 263.281 24.0309 263.069 24.0309 262.84C24.0309 262.605 24.0776 262.405 24.1709 262.24C24.2669 262.072 24.3963 261.935 24.5589 261.828C24.7243 261.721 24.9149 261.64 25.1309 261.584C25.3496 261.531 25.5909 261.484 25.8549 261.444C26.1216 261.401 26.3816 261.365 26.6349 261.336C26.8909 261.304 27.1149 261.273 27.3069 261.244L27.0989 261.372C27.1069 260.945 27.0243 260.629 26.8509 260.424C26.6776 260.219 26.3763 260.116 25.9469 260.116C25.6509 260.116 25.4003 260.183 25.1949 260.316C24.9923 260.449 24.8496 260.66 24.7669 260.948L24.1949 260.78C24.2936 260.393 24.4923 260.093 24.7909 259.88C25.0896 259.667 25.4776 259.56 25.9549 259.56C26.3496 259.56 26.6843 259.635 26.9589 259.784C27.2363 259.931 27.4323 260.144 27.5469 260.424C27.6003 260.549 27.6349 260.689 27.6509 260.844C27.6669 260.999 27.6749 261.156 27.6749 261.316V264H27.1509V262.916L27.3029 262.98C27.1563 263.351 26.9283 263.633 26.6189 263.828C26.3096 264.023 25.9389 264.12 25.5069 264.12ZM25.5749 263.612C25.8496 263.612 26.0896 263.563 26.2949 263.464C26.5003 263.365 26.6656 263.231 26.7909 263.06C26.9163 262.887 26.9976 262.692 27.0349 262.476C27.0669 262.337 27.0843 262.185 27.0869 262.02C27.0896 261.852 27.0909 261.727 27.0909 261.644L27.3149 261.76C27.1149 261.787 26.8976 261.813 26.6629 261.84C26.4309 261.867 26.2016 261.897 25.9749 261.932C25.7509 261.967 25.5483 262.008 25.3669 262.056C25.2443 262.091 25.1256 262.14 25.0109 262.204C24.8963 262.265 24.8016 262.348 24.7269 262.452C24.6549 262.556 24.6189 262.685 24.6189 262.84C24.6189 262.965 24.6496 263.087 24.7109 263.204C24.7749 263.321 24.8763 263.419 25.0149 263.496C25.1563 263.573 25.3429 263.612 25.5749 263.612ZM31.8363 264V261.796C31.8363 261.556 31.8136 261.336 31.7683 261.136C31.7229 260.933 31.6496 260.757 31.5483 260.608C31.4496 260.456 31.3203 260.339 31.1603 260.256C31.0029 260.173 30.8109 260.132 30.5843 260.132C30.3763 260.132 30.1923 260.168 30.0323 260.24C29.8749 260.312 29.7416 260.416 29.6323 260.552C29.5256 260.685 29.4443 260.848 29.3883 261.04C29.3323 261.232 29.3043 261.451 29.3043 261.696L28.8883 261.604C28.8883 261.161 28.9656 260.789 29.1203 260.488C29.2749 260.187 29.4883 259.959 29.7603 259.804C30.0323 259.649 30.3443 259.572 30.6963 259.572C30.9549 259.572 31.1803 259.612 31.3723 259.692C31.5669 259.772 31.7309 259.88 31.8643 260.016C32.0003 260.152 32.1096 260.308 32.1923 260.484C32.2749 260.657 32.3349 260.843 32.3723 261.04C32.4096 261.235 32.4283 261.429 32.4283 261.624V264H31.8363ZM28.7123 264V259.68H29.2443V260.744H29.3043V264H28.7123Z" fill="#666666"/>
<path d="M56.31 264V258.24H59.618V258.828H56.898V260.828H59.138V261.412H56.898V264H56.31ZM62.0521 264.12C61.6307 264.12 61.2654 264.027 60.9561 263.84C60.6494 263.653 60.4107 263.391 60.2401 263.052C60.0694 262.713 59.9841 262.316 59.9841 261.86C59.9841 261.388 60.0681 260.98 60.2361 260.636C60.4041 260.292 60.6401 260.027 60.9441 259.84C61.2507 259.653 61.6121 259.56 62.0281 259.56C62.4547 259.56 62.8187 259.659 63.1201 259.856C63.4214 260.051 63.6494 260.331 63.8041 260.696C63.9587 261.061 64.0294 261.497 64.0161 262.004H63.4161V261.796C63.4054 261.236 63.2841 260.813 63.0521 260.528C62.8227 260.243 62.4867 260.1 62.0441 260.1C61.5801 260.1 61.2241 260.251 60.9761 260.552C60.7307 260.853 60.6081 261.283 60.6081 261.84C60.6081 262.384 60.7307 262.807 60.9761 263.108C61.2241 263.407 61.5747 263.556 62.0281 263.556C62.3374 263.556 62.6067 263.485 62.8361 263.344C63.0681 263.2 63.2507 262.993 63.3841 262.724L63.9321 262.936C63.7614 263.312 63.5094 263.604 63.1761 263.812C62.8454 264.017 62.4707 264.12 62.0521 264.12ZM60.4001 262.004V261.512H63.7001V262.004H60.4001ZM66.8438 264.12C66.4464 264.12 66.1104 264.02 65.8358 263.82C65.5611 263.617 65.3531 263.344 65.2118 263C65.0704 262.653 64.9998 262.265 64.9998 261.836C64.9998 261.399 65.0704 261.009 65.2118 260.668C65.3558 260.324 65.5664 260.053 65.8438 259.856C66.1211 259.659 66.4624 259.56 66.8678 259.56C67.2624 259.56 67.6011 259.66 67.8838 259.86C68.1664 260.06 68.3824 260.332 68.5318 260.676C68.6838 261.02 68.7598 261.407 68.7598 261.836C68.7598 262.268 68.6838 262.656 68.5318 263C68.3798 263.344 68.1611 263.617 67.8758 263.82C67.5904 264.02 67.2464 264.12 66.8438 264.12ZM64.8998 264V258.24H65.4918V260.748H65.4278V264H64.8998ZM66.7838 263.572C67.0851 263.572 67.3358 263.496 67.5358 263.344C67.7358 263.192 67.8851 262.985 67.9838 262.724C68.0851 262.46 68.1358 262.164 68.1358 261.836C68.1358 261.511 68.0864 261.217 67.9878 260.956C67.8891 260.695 67.7384 260.488 67.5358 260.336C67.3358 260.184 67.0811 260.108 66.7718 260.108C66.4704 260.108 66.2198 260.181 66.0198 260.328C65.8224 260.475 65.6744 260.679 65.5758 260.94C65.4771 261.199 65.4278 261.497 65.4278 261.836C65.4278 262.169 65.4771 262.468 65.5758 262.732C65.6744 262.993 65.8238 263.199 66.0238 263.348C66.2238 263.497 66.4771 263.572 66.7838 263.572Z" fill="#666666"/>
<path d="M93.06 264V258.24H93.6L95.864 263.084L98.116 258.24H98.664V263.996H98.104V259.552L96.052 264H95.672L93.624 259.552V264H93.06ZM101.023 264.12C100.697 264.12 100.424 264.061 100.203 263.944C99.9839 263.827 99.8199 263.671 99.7106 263.476C99.6012 263.281 99.5466 263.069 99.5466 262.84C99.5466 262.605 99.5932 262.405 99.6866 262.24C99.7826 262.072 99.9119 261.935 100.075 261.828C100.24 261.721 100.431 261.64 100.647 261.584C100.865 261.531 101.107 261.484 101.371 261.444C101.637 261.401 101.897 261.365 102.151 261.336C102.407 261.304 102.631 261.273 102.823 261.244L102.615 261.372C102.623 260.945 102.54 260.629 102.367 260.424C102.193 260.219 101.892 260.116 101.463 260.116C101.167 260.116 100.916 260.183 100.711 260.316C100.508 260.449 100.365 260.66 100.283 260.948L99.7106 260.78C99.8092 260.393 100.008 260.093 100.307 259.88C100.605 259.667 100.993 259.56 101.471 259.56C101.865 259.56 102.2 259.635 102.475 259.784C102.752 259.931 102.948 260.144 103.063 260.424C103.116 260.549 103.151 260.689 103.167 260.844C103.183 260.999 103.191 261.156 103.191 261.316V264H102.667V262.916L102.819 262.98C102.672 263.351 102.444 263.633 102.135 263.828C101.825 264.023 101.455 264.12 101.023 264.12ZM101.091 263.612C101.365 263.612 101.605 263.563 101.811 263.464C102.016 263.365 102.181 263.231 102.307 263.06C102.432 262.887 102.513 262.692 102.551 262.476C102.583 262.337 102.6 262.185 102.603 262.02C102.605 261.852 102.607 261.727 102.607 261.644L102.831 261.76C102.631 261.787 102.413 261.813 102.179 261.84C101.947 261.867 101.717 261.897 101.491 261.932C101.267 261.967 101.064 262.008 100.883 262.056C100.76 262.091 100.641 262.14 100.527 262.204C100.412 262.265 100.317 262.348 100.243 262.452C100.171 262.556 100.135 262.685 100.135 262.84C100.135 262.965 100.165 263.087 100.227 263.204C100.291 263.321 100.392 263.419 100.531 263.496C100.672 263.573 100.859 263.612 101.091 263.612ZM104.232 264V259.68H104.76V260.72L104.656 260.584C104.704 260.456 104.767 260.339 104.844 260.232C104.921 260.123 105.005 260.033 105.096 259.964C105.208 259.865 105.339 259.791 105.488 259.74C105.637 259.687 105.788 259.656 105.94 259.648C106.092 259.637 106.231 259.648 106.356 259.68V260.232C106.199 260.192 106.027 260.183 105.84 260.204C105.653 260.225 105.481 260.3 105.324 260.428C105.18 260.54 105.072 260.675 105 260.832C104.928 260.987 104.88 261.152 104.856 261.328C104.832 261.501 104.82 261.673 104.82 261.844V264H104.232Z" fill="black"/>
<path d="M130.41 264L132.394 258.24H133.174L135.158 264H134.546L132.662 258.568H132.894L131.022 264H130.41ZM131.294 262.604V262.052H134.27V262.604H131.294ZM137.82 264.12C137.423 264.12 137.087 264.02 136.812 263.82C136.538 263.617 136.33 263.344 136.188 263C136.047 262.653 135.976 262.265 135.976 261.836C135.976 261.399 136.047 261.009 136.188 260.668C136.332 260.324 136.543 260.053 136.82 259.856C137.098 259.659 137.439 259.56 137.844 259.56C138.239 259.56 138.578 259.66 138.86 259.86C139.143 260.06 139.359 260.332 139.508 260.676C139.66 261.02 139.736 261.407 139.736 261.836C139.736 262.268 139.66 262.656 139.508 263C139.356 263.344 139.138 263.617 138.852 263.82C138.567 264.02 138.223 264.12 137.82 264.12ZM135.876 265.92V259.68H136.404V262.932H136.468V265.92H135.876ZM137.76 263.572C138.062 263.572 138.312 263.496 138.512 263.344C138.712 263.192 138.862 262.985 138.96 262.724C139.062 262.46 139.112 262.164 139.112 261.836C139.112 261.511 139.063 261.217 138.964 260.956C138.866 260.695 138.715 260.488 138.512 260.336C138.312 260.184 138.058 260.108 137.748 260.108C137.447 260.108 137.196 260.181 136.996 260.328C136.799 260.475 136.651 260.679 136.552 260.94C136.454 261.199 136.404 261.497 136.404 261.836C136.404 262.169 136.454 262.468 136.552 262.732C136.651 262.993 136.8 263.199 137 263.348C137.2 263.497 137.454 263.572 137.76 263.572ZM140.615 264V259.68H141.143V260.72L141.039 260.584C141.087 260.456 141.149 260.339 141.227 260.232C141.304 260.123 141.388 260.033 141.479 259.964C141.591 259.865 141.721 259.791 141.871 259.74C142.02 259.687 142.171 259.656 142.323 259.648C142.475 259.637 142.613 259.648 142.739 259.68V260.232C142.581 260.192 142.409 260.183 142.223 260.204C142.036 260.225 141.864 260.3 141.707 260.428C141.563 260.54 141.455 260.675 141.383 260.832C141.311 260.987 141.263 261.152 141.239 261.328C141.215 261.501 141.203 261.673 141.203 261.844V264H140.615Z" fill="#666666"/>
<path d="M166.56 264V258.24H167.1L169.364 263.084L171.616 258.24H172.164V263.996H171.604V259.552L169.552 264H169.172L167.124 259.552V264H166.56ZM174.523 264.12C174.197 264.12 173.924 264.061 173.703 263.944C173.484 263.827 173.32 263.671 173.211 263.476C173.101 263.281 173.047 263.069 173.047 262.84C173.047 262.605 173.093 262.405 173.187 262.24C173.283 262.072 173.412 261.935 173.575 261.828C173.74 261.721 173.931 261.64 174.147 261.584C174.365 261.531 174.607 261.484 174.871 261.444C175.137 261.401 175.397 261.365 175.651 261.336C175.907 261.304 176.131 261.273 176.323 261.244L176.115 261.372C176.123 260.945 176.04 260.629 175.867 260.424C175.693 260.219 175.392 260.116 174.963 260.116C174.667 260.116 174.416 260.183 174.211 260.316C174.008 260.449 173.865 260.66 173.783 260.948L173.211 260.78C173.309 260.393 173.508 260.093 173.807 259.88C174.105 259.667 174.493 259.56 174.971 259.56C175.365 259.56 175.7 259.635 175.975 259.784C176.252 259.931 176.448 260.144 176.563 260.424C176.616 260.549 176.651 260.689 176.667 260.844C176.683 260.999 176.691 261.156 176.691 261.316V264H176.167V262.916L176.319 262.98C176.172 263.351 175.944 263.633 175.635 263.828C175.325 264.023 174.955 264.12 174.523 264.12ZM174.591 263.612C174.865 263.612 175.105 263.563 175.311 263.464C175.516 263.365 175.681 263.231 175.807 263.06C175.932 262.887 176.013 262.692 176.051 262.476C176.083 262.337 176.1 262.185 176.103 262.02C176.105 261.852 176.107 261.727 176.107 261.644L176.331 261.76C176.131 261.787 175.913 261.813 175.679 261.84C175.447 261.867 175.217 261.897 174.991 261.932C174.767 261.967 174.564 262.008 174.383 262.056C174.26 262.091 174.141 262.14 174.027 262.204C173.912 262.265 173.817 262.348 173.743 262.452C173.671 262.556 173.635 262.685 173.635 262.84C173.635 262.965 173.665 263.087 173.727 263.204C173.791 263.321 173.892 263.419 174.031 263.496C174.172 263.573 174.359 263.612 174.591 263.612ZM178.106 265.92L178.942 263.652L178.954 264.324L177.062 259.68H177.686L179.238 263.564H178.982L180.414 259.68H181.014L178.694 265.92H178.106Z" fill="#666666"/>
<path d="M206.294 264.116C205.91 264.116 205.581 264.009 205.306 263.796C205.031 263.583 204.846 263.297 204.75 262.94L205.338 262.8C205.386 263.011 205.497 263.189 205.67 263.336C205.846 263.48 206.053 263.552 206.29 263.552C206.439 263.552 206.59 263.516 206.742 263.444C206.897 263.372 207.018 263.253 207.106 263.088C207.165 262.973 207.198 262.849 207.206 262.716C207.217 262.58 207.222 262.417 207.222 262.228V258.24H207.814V262.228C207.814 262.388 207.813 262.533 207.81 262.664C207.807 262.792 207.793 262.916 207.766 263.036C207.742 263.153 207.695 263.272 207.626 263.392C207.487 263.635 207.301 263.816 207.066 263.936C206.834 264.056 206.577 264.116 206.294 264.116ZM210.673 264.108C210.414 264.108 210.188 264.068 209.993 263.988C209.801 263.908 209.637 263.8 209.501 263.664C209.368 263.528 209.26 263.373 209.177 263.2C209.094 263.024 209.034 262.839 208.997 262.644C208.96 262.447 208.941 262.251 208.941 262.056V259.68H209.533V261.884C209.533 262.121 209.556 262.341 209.601 262.544C209.646 262.747 209.718 262.924 209.817 263.076C209.918 263.225 210.048 263.341 210.205 263.424C210.365 263.507 210.558 263.548 210.785 263.548C210.993 263.548 211.176 263.512 211.333 263.44C211.493 263.368 211.626 263.265 211.733 263.132C211.842 262.996 211.925 262.832 211.981 262.64C212.037 262.445 212.065 262.227 212.065 261.984L212.481 262.076C212.481 262.519 212.404 262.891 212.249 263.192C212.094 263.493 211.881 263.721 211.609 263.876C211.337 264.031 211.025 264.108 210.673 264.108ZM212.125 264V262.936H212.065V259.68H212.653V264H212.125ZM216.891 264V261.796C216.891 261.556 216.868 261.336 216.823 261.136C216.778 260.933 216.704 260.757 216.603 260.608C216.504 260.456 216.375 260.339 216.215 260.256C216.058 260.173 215.866 260.132 215.639 260.132C215.431 260.132 215.247 260.168 215.087 260.24C214.93 260.312 214.796 260.416 214.687 260.552C214.58 260.685 214.499 260.848 214.443 261.04C214.387 261.232 214.359 261.451 214.359 261.696L213.943 261.604C213.943 261.161 214.02 260.789 214.175 260.488C214.33 260.187 214.543 259.959 214.815 259.804C215.087 259.649 215.399 259.572 215.751 259.572C216.01 259.572 216.235 259.612 216.427 259.692C216.622 259.772 216.786 259.88 216.919 260.016C217.055 260.152 217.164 260.308 217.247 260.484C217.33 260.657 217.39 260.843 217.427 261.04C217.464 261.235 217.483 261.429 217.483 261.624V264H216.891ZM213.767 264V259.68H214.299V260.744H214.359V264H213.767Z" fill="#666666"/>
<path d="M243.044 264.116C242.66 264.116 242.331 264.009 242.056 263.796C241.781 263.583 241.596 263.297 241.5 262.94L242.088 262.8C242.136 263.011 242.247 263.189 242.42 263.336C242.596 263.48 242.803 263.552 243.04 263.552C243.189 263.552 243.34 263.516 243.492 263.444C243.647 263.372 243.768 263.253 243.856 263.088C243.915 262.973 243.948 262.849 243.956 262.716C243.967 262.58 243.972 262.417 243.972 262.228V258.24H244.564V262.228C244.564 262.388 244.563 262.533 244.56 262.664C244.557 262.792 244.543 262.916 244.516 263.036C244.492 263.153 244.445 263.272 244.376 263.392C244.237 263.635 244.051 263.816 243.816 263.936C243.584 264.056 243.327 264.116 243.044 264.116ZM247.423 264.108C247.164 264.108 246.938 264.068 246.743 263.988C246.551 263.908 246.387 263.8 246.251 263.664C246.118 263.528 246.01 263.373 245.927 263.2C245.844 263.024 245.784 262.839 245.747 262.644C245.71 262.447 245.691 262.251 245.691 262.056V259.68H246.283V261.884C246.283 262.121 246.306 262.341 246.351 262.544C246.396 262.747 246.468 262.924 246.567 263.076C246.668 263.225 246.798 263.341 246.955 263.424C247.115 263.507 247.308 263.548 247.535 263.548C247.743 263.548 247.926 263.512 248.083 263.44C248.243 263.368 248.376 263.265 248.483 263.132C248.592 262.996 248.675 262.832 248.731 262.64C248.787 262.445 248.815 262.227 248.815 261.984L249.231 262.076C249.231 262.519 249.154 262.891 248.999 263.192C248.844 263.493 248.631 263.721 248.359 263.876C248.087 264.031 247.775 264.108 247.423 264.108ZM248.875 264V262.936H248.815V259.68H249.403V264H248.875ZM250.601 264V258.12H251.189V264H250.601Z" fill="#666666"/>
<path d="M275.41 264L277.394 258.24H278.174L280.158 264H279.546L277.662 258.568H277.894L276.022 264H275.41ZM276.294 262.604V262.052H279.27V262.604H276.294ZM282.532 264.108C282.274 264.108 282.047 264.068 281.852 263.988C281.66 263.908 281.496 263.8 281.36 263.664C281.227 263.528 281.119 263.373 281.036 263.2C280.954 263.024 280.894 262.839 280.856 262.644C280.819 262.447 280.8 262.251 280.8 262.056V259.68H281.392V261.884C281.392 262.121 281.415 262.341 281.46 262.544C281.506 262.747 281.578 262.924 281.676 263.076C281.778 263.225 281.907 263.341 282.064 263.424C282.224 263.507 282.418 263.548 282.644 263.548C282.852 263.548 283.035 263.512 283.192 263.44C283.352 263.368 283.486 263.265 283.592 263.132C283.702 262.996 283.784 262.832 283.84 262.64C283.896 262.445 283.924 262.227 283.924 261.984L284.34 262.076C284.34 262.519 284.263 262.891 284.108 263.192C283.954 263.493 283.74 263.721 283.468 263.876C283.196 264.031 282.884 264.108 282.532 264.108ZM283.984 264V262.936H283.924V259.68H284.512V264H283.984ZM287.346 266.04C287.125 266.04 286.906 266.007 286.69 265.94C286.477 265.876 286.28 265.773 286.098 265.632C285.917 265.493 285.765 265.312 285.642 265.088L286.174 264.792C286.294 265.032 286.462 265.204 286.678 265.308C286.897 265.415 287.12 265.468 287.346 265.468C287.658 265.468 287.91 265.409 288.102 265.292C288.297 265.177 288.438 265.007 288.526 264.78C288.614 264.553 288.657 264.271 288.654 263.932V262.78H288.722V259.68H289.246V263.94C289.246 264.063 289.242 264.18 289.234 264.292C289.229 264.407 289.217 264.519 289.198 264.628C289.148 264.951 289.042 265.216 288.882 265.424C288.725 265.632 288.517 265.787 288.258 265.888C288.002 265.989 287.698 266.04 287.346 266.04ZM287.306 264.12C286.904 264.12 286.56 264.02 286.274 263.82C285.989 263.617 285.77 263.344 285.618 263C285.466 262.656 285.39 262.268 285.39 261.836C285.39 261.407 285.465 261.02 285.614 260.676C285.766 260.332 285.984 260.06 286.266 259.86C286.549 259.66 286.888 259.56 287.282 259.56C287.688 259.56 288.029 259.659 288.306 259.856C288.584 260.053 288.793 260.324 288.934 260.668C289.078 261.009 289.15 261.399 289.15 261.836C289.15 262.265 289.08 262.653 288.938 263C288.797 263.344 288.589 263.617 288.314 263.82C288.04 264.02 287.704 264.12 287.306 264.12ZM287.366 263.572C287.673 263.572 287.926 263.497 288.126 263.348C288.326 263.199 288.476 262.993 288.574 262.732C288.673 262.468 288.722 262.169 288.722 261.836C288.722 261.497 288.673 261.199 288.574 260.94C288.476 260.679 288.326 260.475 288.126 260.328C287.929 260.181 287.68 260.108 287.378 260.108C287.069 260.108 286.813 260.184 286.61 260.336C286.408 260.488 286.257 260.695 286.158 260.956C286.062 261.217 286.014 261.511 286.014 261.836C286.014 262.164 286.064 262.46 286.162 262.724C286.264 262.985 286.414 263.192 286.614 263.344C286.814 263.496 287.065 263.572 287.366 263.572Z" fill="#666666"/>
<path d="M315.56 264.12C315.157 264.12 314.795 264.053 314.472 263.92C314.152 263.784 313.887 263.592 313.676 263.344C313.468 263.096 313.332 262.801 313.268 262.46L313.868 262.36C313.964 262.733 314.167 263.027 314.476 263.24C314.785 263.451 315.155 263.556 315.584 263.556C315.867 263.556 316.12 263.512 316.344 263.424C316.568 263.333 316.744 263.205 316.872 263.04C317 262.875 317.064 262.679 317.064 262.452C317.064 262.303 317.037 262.176 316.984 262.072C316.931 261.965 316.86 261.877 316.772 261.808C316.684 261.739 316.588 261.681 316.484 261.636C316.38 261.588 316.279 261.549 316.18 261.52L314.72 261.084C314.544 261.033 314.381 260.969 314.232 260.892C314.083 260.812 313.952 260.717 313.84 260.608C313.731 260.496 313.645 260.365 313.584 260.216C313.523 260.067 313.492 259.896 313.492 259.704C313.492 259.379 313.577 259.097 313.748 258.86C313.919 258.623 314.152 258.44 314.448 258.312C314.744 258.184 315.081 258.121 315.46 258.124C315.844 258.124 316.187 258.192 316.488 258.328C316.792 258.464 317.043 258.659 317.24 258.912C317.437 259.163 317.568 259.46 317.632 259.804L317.016 259.916C316.976 259.665 316.884 259.448 316.74 259.264C316.596 259.08 316.412 258.939 316.188 258.84C315.967 258.739 315.723 258.687 315.456 258.684C315.197 258.684 314.967 258.728 314.764 258.816C314.564 258.901 314.405 259.019 314.288 259.168C314.171 259.317 314.112 259.488 314.112 259.68C314.112 259.875 314.165 260.031 314.272 260.148C314.381 260.265 314.515 260.357 314.672 260.424C314.832 260.491 314.987 260.545 315.136 260.588L316.264 260.92C316.381 260.952 316.519 260.999 316.676 261.06C316.836 261.119 316.991 261.204 317.14 261.316C317.292 261.425 317.417 261.569 317.516 261.748C317.615 261.927 317.664 262.153 317.664 262.428C317.664 262.695 317.611 262.933 317.504 263.144C317.4 263.355 317.252 263.532 317.06 263.676C316.871 263.82 316.648 263.929 316.392 264.004C316.139 264.081 315.861 264.12 315.56 264.12ZM320.318 264.12C319.896 264.12 319.531 264.027 319.222 263.84C318.915 263.653 318.676 263.391 318.506 263.052C318.335 262.713 318.25 262.316 318.25 261.86C318.25 261.388 318.334 260.98 318.502 260.636C318.67 260.292 318.906 260.027 319.21 259.84C319.516 259.653 319.878 259.56 320.294 259.56C320.72 259.56 321.084 259.659 321.386 259.856C321.687 260.051 321.915 260.331 322.07 260.696C322.224 261.061 322.295 261.497 322.282 262.004H321.682V261.796C321.671 261.236 321.55 260.813 321.318 260.528C321.088 260.243 320.752 260.1 320.31 260.1C319.846 260.1 319.49 260.251 319.242 260.552C318.996 260.853 318.874 261.283 318.874 261.84C318.874 262.384 318.996 262.807 319.242 263.108C319.49 263.407 319.84 263.556 320.294 263.556C320.603 263.556 320.872 263.485 321.102 263.344C321.334 263.2 321.516 262.993 321.65 262.724L322.198 262.936C322.027 263.312 321.775 263.604 321.442 263.812C321.111 264.017 320.736 264.12 320.318 264.12ZM318.666 262.004V261.512H321.966V262.004H318.666ZM324.992 264.12C324.595 264.12 324.259 264.02 323.984 263.82C323.71 263.617 323.502 263.344 323.36 263C323.219 262.653 323.148 262.265 323.148 261.836C323.148 261.399 323.219 261.009 323.36 260.668C323.504 260.324 323.715 260.053 323.992 259.856C324.27 259.659 324.611 259.56 325.016 259.56C325.411 259.56 325.75 259.66 326.032 259.86C326.315 260.06 326.531 260.332 326.68 260.676C326.832 261.02 326.908 261.407 326.908 261.836C326.908 262.268 326.832 262.656 326.68 263C326.528 263.344 326.31 263.617 326.024 263.82C325.739 264.02 325.395 264.12 324.992 264.12ZM323.048 265.92V259.68H323.576V262.932H323.64V265.92H323.048ZM324.932 263.572C325.234 263.572 325.484 263.496 325.684 263.344C325.884 263.192 326.034 262.985 326.132 262.724C326.234 262.46 326.284 262.164 326.284 261.836C326.284 261.511 326.235 261.217 326.136 260.956C326.038 260.695 325.887 260.488 325.684 260.336C325.484 260.184 325.23 260.108 324.92 260.108C324.619 260.108 324.368 260.181 324.168 260.328C323.971 260.475 323.823 260.679 323.724 260.94C323.626 261.199 323.576 261.497 323.576 261.836C323.576 262.169 323.626 262.468 323.724 262.732C323.823 262.993 323.972 263.199 324.172 263.348C324.372 263.497 324.626 263.572 324.932 263.572Z" fill="#666666"/>
<rect x="20" y="50" width="54" height="26" rx="8" fill="#EDEAE7"/>
<path d="M28.51 65.675V63.765H26.6V63.03H28.51V61.125H29.245V63.03H31.15V63.765H29.245V65.675H28.51ZM34.907 67.15C34.4503 67.15 34.0353 67.04 33.662 66.82C33.292 66.6 32.997 66.3 32.777 65.92C32.5603 65.5367 32.452 65.105 32.452 64.625V62.23C32.452 61.7267 32.5603 61.2817 32.777 60.895C32.997 60.505 33.297 60.2017 33.677 59.985C34.0603 59.765 34.497 59.655 34.987 59.655C35.3836 59.655 35.752 59.7367 36.092 59.9C36.4353 60.06 36.7236 60.2917 36.957 60.595L36.292 61.185C36.1486 60.975 35.962 60.8083 35.732 60.685C35.502 60.5617 35.2536 60.5 34.987 60.5C34.6703 60.5 34.3886 60.5767 34.142 60.73C33.8986 60.88 33.707 61.08 33.567 61.33C33.427 61.5767 33.357 61.8433 33.357 62.13V63.575L33.162 63.355C33.372 63.055 33.6386 62.815 33.962 62.635C34.2853 62.455 34.6353 62.365 35.012 62.365C35.4586 62.365 35.8586 62.47 36.212 62.68C36.5686 62.89 36.8486 63.175 37.052 63.535C37.2586 63.8917 37.362 64.2933 37.362 64.74C37.362 65.1867 37.2503 65.5917 37.027 65.955C36.8036 66.3183 36.5053 66.6083 36.132 66.825C35.762 67.0417 35.3536 67.15 34.907 67.15ZM34.907 66.29C35.1936 66.29 35.4553 66.2217 35.692 66.085C35.9286 65.945 36.1153 65.7583 36.252 65.525C36.392 65.2883 36.462 65.0267 36.462 64.74C36.462 64.4533 36.392 64.1917 36.252 63.955C36.1153 63.7183 35.9286 63.5317 35.692 63.395C35.4586 63.255 35.1986 63.185 34.912 63.185C34.6253 63.185 34.3636 63.255 34.127 63.395C33.8936 63.5317 33.707 63.7183 33.567 63.955C33.427 64.1917 33.357 64.4533 33.357 64.74C33.357 65.0233 33.4253 65.2833 33.562 65.52C33.702 65.7533 33.8886 65.94 34.122 66.08C34.3586 66.22 34.6203 66.29 34.907 66.29ZM40.9129 67.15C40.4529 67.15 40.0462 67.0583 39.6929 66.875C39.3396 66.6883 39.0629 66.43 38.8629 66.1C38.6629 65.77 38.5629 65.385 38.5629 64.945C38.5629 64.515 38.6646 64.1267 38.8679 63.78C39.0746 63.4333 39.3846 63.1667 39.7979 62.98L39.7829 63.305C39.4462 63.1417 39.1879 62.9117 39.0079 62.615C38.8279 62.315 38.7379 61.9833 38.7379 61.62C38.7379 61.2133 38.8312 60.8633 39.0179 60.57C39.2046 60.2767 39.4612 60.05 39.7879 59.89C40.1146 59.73 40.4896 59.65 40.9129 59.65C41.3362 59.65 41.7112 59.73 42.0379 59.89C42.3646 60.05 42.6212 60.2767 42.8079 60.57C42.9946 60.8633 43.0879 61.2133 43.0879 61.62C43.0879 61.9833 43.0029 62.3133 42.8329 62.61C42.6629 62.9033 42.4012 63.135 42.0479 63.305L42.0279 62.985C42.4412 63.165 42.7512 63.43 42.9579 63.78C43.1679 64.1267 43.2729 64.515 43.2729 64.945C43.2729 65.385 43.1712 65.77 42.9679 66.1C42.7679 66.43 42.4896 66.6883 42.1329 66.875C41.7796 67.0583 41.3729 67.15 40.9129 67.15ZM40.9129 66.3C41.3329 66.3 41.6729 66.185 41.9329 65.955C42.1962 65.7217 42.3279 65.385 42.3279 64.945C42.3279 64.5017 42.1979 64.165 41.9379 63.935C41.6812 63.7017 41.3396 63.585 40.9129 63.585C40.4896 63.585 40.1479 63.7017 39.8879 63.935C39.6312 64.165 39.5029 64.5017 39.5029 64.945C39.5029 65.385 39.6329 65.7217 39.8929 65.955C40.1529 66.185 40.4929 66.3 40.9129 66.3ZM40.9129 62.73C41.2796 62.73 41.5762 62.6383 41.8029 62.455C42.0296 62.2683 42.1429 61.99 42.1429 61.62C42.1429 61.25 42.0296 60.9733 41.8029 60.79C41.5762 60.6033 41.2796 60.51 40.9129 60.51C40.5496 60.51 40.2529 60.6033 40.0229 60.79C39.7962 60.9733 39.6829 61.25 39.6829 61.62C39.6829 61.99 39.7962 62.2683 40.0229 62.455C40.2529 62.6383 40.5496 62.73 40.9129 62.73ZM44.7311 67V66.02H45.7111V67H44.7311ZM49.7214 67.15C49.2647 67.15 48.8497 67.04 48.4764 66.82C48.1064 66.6 47.8114 66.3 47.5914 65.92C47.3747 65.5367 47.2664 65.105 47.2664 64.625V62.23C47.2664 61.7267 47.3747 61.2817 47.5914 60.895C47.8114 60.505 48.1114 60.2017 48.4914 59.985C48.8747 59.765 49.3114 59.655 49.8014 59.655C50.1981 59.655 50.5664 59.7367 50.9064 59.9C51.2497 60.06 51.5381 60.2917 51.7714 60.595L51.1064 61.185C50.9631 60.975 50.7764 60.8083 50.5464 60.685C50.3164 60.5617 50.0681 60.5 49.8014 60.5C49.4847 60.5 49.2031 60.5767 48.9564 60.73C48.7131 60.88 48.5214 61.08 48.3814 61.33C48.2414 61.5767 48.1714 61.8433 48.1714 62.13V63.575L47.9764 63.355C48.1864 63.055 48.4531 62.815 48.7764 62.635C49.0997 62.455 49.4497 62.365 49.8264 62.365C50.2731 62.365 50.6731 62.47 51.0264 62.68C51.3831 62.89 51.6631 63.175 51.8664 63.535C52.0731 63.8917 52.1764 64.2933 52.1764 64.74C52.1764 65.1867 52.0647 65.5917 51.8414 65.955C51.6181 66.3183 51.3197 66.6083 50.9464 66.825C50.5764 67.0417 50.1681 67.15 49.7214 67.15ZM49.7214 66.29C50.0081 66.29 50.2697 66.2217 50.5064 66.085C50.7431 65.945 50.9297 65.7583 51.0664 65.525C51.2064 65.2883 51.2764 65.0267 51.2764 64.74C51.2764 64.4533 51.2064 64.1917 51.0664 63.955C50.9297 63.7183 50.7431 63.5317 50.5064 63.395C50.2731 63.255 50.0131 63.185 49.7264 63.185C49.4397 63.185 49.1781 63.255 48.9414 63.395C48.7081 63.5317 48.5214 63.7183 48.3814 63.955C48.2414 64.1917 48.1714 64.4533 48.1714 64.74C48.1714 65.0233 48.2397 65.2833 48.3764 65.52C48.5164 65.7533 48.7031 65.94 48.9364 66.08C49.1731 66.22 49.4347 66.29 49.7214 66.29ZM56.5873 67V65.675H53.2773V64.83L55.6523 59.8H56.6623L54.2873 64.83H56.5873V62.805H57.4873V64.83H58.2373V65.675H57.4873V67H56.5873ZM60.2344 67L59.6344 66.4L66.2444 59.8L66.8444 60.4L60.2344 67ZM65.3444 67.15C65.0144 67.15 64.7127 67.07 64.4394 66.91C64.1694 66.7467 63.9527 66.53 63.7894 66.26C63.626 65.9867 63.5444 65.6833 63.5444 65.35C63.5444 65.0233 63.6277 64.7233 63.7944 64.45C63.961 64.1767 64.181 63.9583 64.4544 63.795C64.7277 63.6317 65.0244 63.55 65.3444 63.55C65.6744 63.55 65.976 63.6317 66.2494 63.795C66.5227 63.955 66.7394 64.1717 66.8994 64.445C67.0627 64.715 67.1444 65.0167 67.1444 65.35C67.1444 65.6833 67.0627 65.9867 66.8994 66.26C66.7394 66.53 66.5227 66.7467 66.2494 66.91C65.976 67.07 65.6744 67.15 65.3444 67.15ZM65.3444 66.365C65.5277 66.365 65.696 66.3183 65.8494 66.225C66.006 66.1317 66.1294 66.0083 66.2194 65.855C66.3127 65.7017 66.3594 65.5333 66.3594 65.35C66.3594 65.1667 66.3127 64.9983 66.2194 64.845C66.1294 64.6883 66.006 64.565 65.8494 64.475C65.696 64.3817 65.5277 64.335 65.3444 64.335C65.161 64.335 64.9927 64.3817 64.8394 64.475C64.686 64.565 64.5627 64.6883 64.4694 64.845C64.376 64.9983 64.3294 65.1667 64.3294 65.35C64.3294 65.5333 64.376 65.7017 64.4694 65.855C64.5627 66.0083 64.686 66.1317 64.8394 66.225C64.9927 66.3183 65.161 66.365 65.3444 66.365ZM61.1344 63.25C60.8044 63.25 60.5027 63.17 60.2294 63.01C59.956 62.8467 59.7377 62.63 59.5744 62.36C59.4144 62.0867 59.3344 61.7833 59.3344 61.45C59.3344 61.1233 59.4177 60.8233 59.5844 60.55C59.751 60.2767 59.971 60.0583 60.2444 59.895C60.5177 59.7317 60.8144 59.65 61.1344 59.65C61.4644 59.65 61.7644 59.7317 62.0344 59.895C62.3077 60.055 62.526 60.2717 62.6894 60.545C62.8527 60.815 62.9344 61.1167 62.9344 61.45C62.9344 61.7833 62.8527 62.0867 62.6894 62.36C62.526 62.63 62.3077 62.8467 62.0344 63.01C61.7644 63.17 61.4644 63.25 61.1344 63.25ZM61.1344 62.465C61.3177 62.465 61.486 62.4183 61.6394 62.325C61.796 62.2317 61.9194 62.1083 62.0094 61.955C62.1027 61.8017 62.1494 61.6333 62.1494 61.45C62.1494 61.2667 62.1027 61.0983 62.0094 60.945C61.9194 60.7883 61.796 60.665 61.6394 60.575C61.486 60.4817 61.3177 60.435 61.1344 60.435C60.951 60.435 60.7827 60.4817 60.6294 60.575C60.476 60.665 60.3527 60.7883 60.2594 60.945C60.166 61.0983 60.1194 61.2667 60.1194 61.45C60.1194 61.6333 60.166 61.8017 60.2594 61.955C60.3527 62.1083 60.476 62.2317 60.6294 62.325C60.7827 62.4183 60.951 62.465 61.1344 62.465Z" fill="black"/>
<path d="M20.18 98L22.412 91.52H23.2895L25.5215 98H24.833L22.7135 91.889H22.9745L20.8685 98H20.18ZM21.1745 96.4295V95.8085H24.5225V96.4295H21.1745ZM28.2196 98.135C27.7666 98.135 27.3796 98.0225 27.0586 97.7975C26.7376 97.5695 26.4916 97.262 26.3206 96.875C26.1496 96.488 26.0641 96.0515 26.0641 95.5655C26.0641 95.0825 26.1481 94.6475 26.3161 94.2605C26.4871 93.8735 26.7316 93.5675 27.0496 93.3425C27.3676 93.1175 27.7486 93.005 28.1926 93.005C28.6486 93.005 29.0326 93.116 29.3446 93.338C29.6566 93.56 29.8921 93.8645 30.0511 94.2515C30.2131 94.6355 30.2941 95.0735 30.2941 95.5655C30.2941 96.0485 30.2146 96.485 30.0556 96.875C29.8966 97.262 29.6626 97.5695 29.3536 97.7975C29.0446 98.0225 28.6666 98.135 28.2196 98.135ZM28.2871 97.5185C28.6321 97.5185 28.9171 97.4345 29.1421 97.2665C29.3671 97.0985 29.5351 96.8675 29.6461 96.5735C29.7571 96.2765 29.8126 95.9405 29.8126 95.5655C29.8126 95.1845 29.7571 94.8485 29.6461 94.5575C29.5351 94.2635 29.3671 94.034 29.1421 93.869C28.9201 93.704 28.6396 93.6215 28.3006 93.6215C27.9526 93.6215 27.6646 93.707 27.4366 93.878C27.2086 94.049 27.0391 94.2815 26.9281 94.5755C26.8201 94.8695 26.7661 95.1995 26.7661 95.5655C26.7661 95.9345 26.8216 96.2675 26.9326 96.5645C27.0466 96.8585 27.2161 97.091 27.4411 97.262C27.6661 97.433 27.9481 97.5185 28.2871 97.5185ZM29.8126 98V94.3415H29.7406V91.52H30.4066V98H29.8126ZM32.9831 98L31.2191 93.14H31.8896L33.3251 97.136L34.7516 93.14H35.4311L33.6671 98H32.9831ZM38.1201 98.135C37.6461 98.135 37.2351 98.03 36.8871 97.82C36.5421 97.61 36.2736 97.3145 36.0816 96.9335C35.8896 96.5525 35.7936 96.1055 35.7936 95.5925C35.7936 95.0615 35.8881 94.6025 36.0771 94.2155C36.2661 93.8285 36.5316 93.53 36.8736 93.32C37.2186 93.11 37.6251 93.005 38.0931 93.005C38.5731 93.005 38.9826 93.116 39.3216 93.338C39.6606 93.557 39.9171 93.872 40.0911 94.283C40.2651 94.694 40.3446 95.1845 40.3296 95.7545H39.6546V95.5205C39.6426 94.8905 39.5061 94.415 39.2451 94.094C38.9871 93.773 38.6091 93.6125 38.1111 93.6125C37.5891 93.6125 37.1886 93.782 36.9096 94.121C36.6336 94.46 36.4956 94.943 36.4956 95.57C36.4956 96.182 36.6336 96.6575 36.9096 96.9965C37.1886 97.3325 37.5831 97.5005 38.0931 97.5005C38.4411 97.5005 38.7441 97.421 39.0021 97.262C39.2631 97.1 39.4686 96.8675 39.6186 96.5645L40.2351 96.803C40.0431 97.226 39.7596 97.5545 39.3846 97.7885C39.0126 98.0195 38.5911 98.135 38.1201 98.135ZM36.2616 95.7545V95.201H39.9741V95.7545H36.2616ZM41.3282 98V93.14H41.9222V94.31L41.8052 94.157C41.8592 94.013 41.9297 93.881 42.0167 93.761C42.1037 93.638 42.1982 93.5375 42.3002 93.4595C42.4262 93.3485 42.5732 93.2645 42.7412 93.2075C42.9092 93.1475 43.0787 93.113 43.2497 93.104C43.4207 93.092 43.5767 93.104 43.7177 93.14V93.761C43.5407 93.716 43.3472 93.7055 43.1372 93.7295C42.9272 93.7535 42.7337 93.8375 42.5567 93.9815C42.3947 94.1075 42.2732 94.259 42.1922 94.436C42.1112 94.61 42.0572 94.796 42.0302 94.994C42.0032 95.189 41.9897 95.3825 41.9897 95.5745V98H41.3282ZM47.2174 98C46.9444 98.057 46.6744 98.0795 46.4074 98.0675C46.1434 98.0555 45.9064 97.9985 45.6964 97.8965C45.4894 97.7945 45.3319 97.6355 45.2239 97.4195C45.1369 97.2395 45.0889 97.058 45.0799 96.875C45.0739 96.689 45.0709 96.4775 45.0709 96.2405V91.79H45.7279V96.2135C45.7279 96.4175 45.7294 96.5885 45.7324 96.7265C45.7384 96.8615 45.7699 96.9815 45.8269 97.0865C45.9349 97.2875 46.1059 97.4075 46.3399 97.4465C46.5769 97.4855 46.8694 97.4765 47.2174 97.4195V98ZM44.0314 93.707V93.14H47.2174V93.707H44.0314ZM48.2649 92.2175V91.475H48.9264V92.2175H48.2649ZM48.2649 98V93.14H48.9264V98H48.2649ZM52.089 98.1305C51.519 98.1305 51.0495 98.0075 50.6805 97.7615C50.3145 97.5155 50.0895 97.1735 50.0055 96.7355L50.6805 96.623C50.7525 96.899 50.916 97.1195 51.171 97.2845C51.429 97.4465 51.747 97.5275 52.125 97.5275C52.494 97.5275 52.785 97.451 52.998 97.298C53.211 97.142 53.3175 96.9305 53.3175 96.6635C53.3175 96.5135 53.283 96.392 53.214 96.299C53.148 96.203 53.0115 96.1145 52.8045 96.0335C52.5975 95.9525 52.2885 95.8565 51.8775 95.7455C51.4365 95.6255 51.0915 95.5055 50.8425 95.3855C50.5935 95.2655 50.4165 95.1275 50.3115 94.9715C50.2065 94.8125 50.154 94.619 50.154 94.391C50.154 94.115 50.232 93.8735 50.388 93.6665C50.544 93.4565 50.76 93.2945 51.036 93.1805C51.312 93.0635 51.633 93.005 51.999 93.005C52.365 93.005 52.692 93.065 52.98 93.185C53.271 93.302 53.505 93.467 53.682 93.68C53.859 93.893 53.964 94.1405 53.997 94.4225L53.322 94.544C53.277 94.259 53.1345 94.034 52.8945 93.869C52.6575 93.701 52.356 93.614 51.99 93.608C51.645 93.599 51.3645 93.665 51.1485 93.806C50.9325 93.944 50.8245 94.1285 50.8245 94.3595C50.8245 94.4885 50.8635 94.5995 50.9415 94.6925C51.0195 94.7825 51.1605 94.868 51.3645 94.949C51.5715 95.03 51.8655 95.1185 52.2465 95.2145C52.6935 95.3285 53.0445 95.4485 53.2995 95.5745C53.5545 95.7005 53.736 95.849 53.844 96.02C53.952 96.191 54.006 96.4025 54.006 96.6545C54.006 97.1135 53.835 97.475 53.493 97.739C53.154 98 52.686 98.1305 52.089 98.1305ZM55.094 92.2175V91.475H55.7555V92.2175H55.094ZM55.094 98V93.14H55.7555V98H55.094ZM60.6146 98V95.5205C60.6146 95.2505 60.5891 95.003 60.5381 94.778C60.4871 94.55 60.4046 94.352 60.2906 94.184C60.1796 94.013 60.0341 93.881 59.8541 93.788C59.6771 93.695 59.4611 93.6485 59.2061 93.6485C58.9721 93.6485 58.7651 93.689 58.5851 93.77C58.4081 93.851 58.2581 93.968 58.1351 94.121C58.0151 94.271 57.9236 94.454 57.8606 94.67C57.7976 94.886 57.7661 95.132 57.7661 95.408L57.2981 95.3045C57.2981 94.8065 57.3851 94.388 57.5591 94.049C57.7331 93.71 57.9731 93.4535 58.2791 93.2795C58.5851 93.1055 58.9361 93.0185 59.3321 93.0185C59.6231 93.0185 59.8766 93.0635 60.0926 93.1535C60.3116 93.2435 60.4961 93.365 60.6461 93.518C60.7991 93.671 60.9221 93.8465 61.0151 94.0445C61.1081 94.2395 61.1756 94.448 61.2176 94.67C61.2596 94.889 61.2806 95.108 61.2806 95.327V98H60.6146ZM57.1001 98V93.14H57.6986V94.337H57.7661V98H57.1001ZM64.3789 100.295C64.1299 100.295 63.8839 100.258 63.6409 100.183C63.4009 100.111 63.1789 99.995 62.9749 99.836C62.7709 99.68 62.5999 99.476 62.4619 99.224L63.0604 98.891C63.1954 99.161 63.3844 99.3545 63.6274 99.4715C63.8734 99.5915 64.1239 99.6515 64.3789 99.6515C64.7299 99.6515 65.0134 99.5855 65.2294 99.4535C65.4484 99.3245 65.6074 99.1325 65.7064 98.8775C65.8054 98.6225 65.8534 98.3045 65.8504 97.9235V96.6275H65.9269V93.14H66.5164V97.9325C66.5164 98.0705 66.5119 98.2025 66.5029 98.3285C66.4969 98.4575 66.4834 98.5835 66.4624 98.7065C66.4054 99.0695 66.2869 99.368 66.1069 99.602C65.9299 99.836 65.6959 100.01 65.4049 100.124C65.1169 100.238 64.7749 100.295 64.3789 100.295ZM64.3339 98.135C63.8809 98.135 63.4939 98.0225 63.1729 97.7975C62.8519 97.5695 62.6059 97.262 62.4349 96.875C62.2639 96.488 62.1784 96.0515 62.1784 95.5655C62.1784 95.0825 62.2624 94.6475 62.4304 94.2605C62.6014 93.8735 62.8459 93.5675 63.1639 93.3425C63.4819 93.1175 63.8629 93.005 64.3069 93.005C64.7629 93.005 65.1469 93.116 65.4589 93.338C65.7709 93.56 66.0064 93.8645 66.1654 94.2515C66.3274 94.6355 66.4084 95.0735 66.4084 95.5655C66.4084 96.0485 66.3289 96.485 66.1699 96.875C66.0109 97.262 65.7769 97.5695 65.4679 97.7975C65.1589 98.0225 64.7809 98.135 64.3339 98.135ZM64.4014 97.5185C64.7464 97.5185 65.0314 97.4345 65.2564 97.2665C65.4814 97.0985 65.6494 96.8675 65.7604 96.5735C65.8714 96.2765 65.9269 95.9405 65.9269 95.5655C65.9269 95.1845 65.8714 94.8485 65.7604 94.5575C65.6494 94.2635 65.4814 94.034 65.2564 93.869C65.0344 93.704 64.7539 93.6215 64.4149 93.6215C64.0669 93.6215 63.7789 93.707 63.5509 93.878C63.3229 94.049 63.1534 94.2815 63.0424 94.5755C62.9344 94.8695 62.8804 95.1995 62.8804 95.5655C62.8804 95.9345 62.9359 96.2675 63.0469 96.5645C63.1609 96.8585 63.3304 97.091 63.5554 97.262C63.7804 97.433 64.0624 97.5185 64.4014 97.5185ZM70.6113 98L69.1263 93.1355L69.7878 93.14L70.9398 96.9155L72.0963 93.14H72.6993L73.8558 96.9155L75.0168 93.14H75.6738L74.1888 98H73.6128L72.3978 94.13L71.1873 98H70.6113ZM76.5745 92.2175V91.475H77.236V92.2175H76.5745ZM76.5745 98V93.14H77.236V98H76.5745ZM78.6751 98V91.385H79.3366V98H78.6751ZM80.7757 98V91.385H81.4372V98H80.7757ZM86.4735 98.135C86.0205 98.135 85.6335 98.0225 85.3125 97.7975C84.9915 97.5695 84.7455 97.262 84.5745 96.875C84.4035 96.488 84.318 96.0515 84.318 95.5655C84.318 95.0825 84.402 94.6475 84.57 94.2605C84.741 93.8735 84.9855 93.5675 85.3035 93.3425C85.6215 93.1175 86.0025 93.005 86.4465 93.005C86.9025 93.005 87.2865 93.116 87.5985 93.338C87.9105 93.56 88.146 93.8645 88.305 94.2515C88.467 94.6355 88.548 95.0735 88.548 95.5655C88.548 96.0485 88.4685 96.485 88.3095 96.875C88.1505 97.262 87.9165 97.5695 87.6075 97.7975C87.2985 98.0225 86.9205 98.135 86.4735 98.135ZM86.541 97.5185C86.886 97.5185 87.171 97.4345 87.396 97.2665C87.621 97.0985 87.789 96.8675 87.9 96.5735C88.011 96.2765 88.0665 95.9405 88.0665 95.5655C88.0665 95.1845 88.011 94.8485 87.9 94.5575C87.789 94.2635 87.621 94.034 87.396 93.869C87.174 93.704 86.8935 93.6215 86.5545 93.6215C86.2065 93.6215 85.9185 93.707 85.6905 93.878C85.4625 94.049 85.293 94.2815 85.182 94.5755C85.074 94.8695 85.02 95.1995 85.02 95.5655C85.02 95.9345 85.0755 96.2675 85.1865 96.5645C85.3005 96.8585 85.47 97.091 85.695 97.262C85.92 97.433 86.202 97.5185 86.541 97.5185ZM88.0665 98V94.3415H87.9945V91.52H88.6605V98H88.0665ZM89.923 98V93.14H90.517V94.31L90.4 94.157C90.454 94.013 90.5245 93.881 90.6115 93.761C90.6985 93.638 90.793 93.5375 90.895 93.4595C91.021 93.3485 91.168 93.2645 91.336 93.2075C91.504 93.1475 91.6735 93.113 91.8445 93.104C92.0155 93.092 92.1715 93.104 92.3125 93.14V93.761C92.1355 93.716 91.942 93.7055 91.732 93.7295C91.522 93.7535 91.3285 93.8375 91.1515 93.9815C90.9895 94.1075 90.868 94.259 90.787 94.436C90.706 94.61 90.652 94.796 90.625 94.994C90.598 95.189 90.5845 95.3825 90.5845 95.5745V98H89.923ZM93.2561 92.2175V91.475H93.9176V92.2175H93.2561ZM93.2561 98V93.14H93.9176V98H93.2561ZM96.5807 98L94.8167 93.14H95.4872L96.9227 97.136L98.3492 93.14H99.0287L97.2647 98H96.5807ZM101.718 98.135C101.244 98.135 100.833 98.03 100.485 97.82C100.14 97.61 99.8713 97.3145 99.6793 96.9335C99.4873 96.5525 99.3913 96.1055 99.3913 95.5925C99.3913 95.0615 99.4858 94.6025 99.6748 94.2155C99.8638 93.8285 100.129 93.53 100.471 93.32C100.816 93.11 101.223 93.005 101.691 93.005C102.171 93.005 102.58 93.116 102.919 93.338C103.258 93.557 103.515 93.872 103.689 94.283C103.863 94.694 103.942 95.1845 103.927 95.7545H103.252V95.5205C103.24 94.8905 103.104 94.415 102.843 94.094C102.585 93.773 102.207 93.6125 101.709 93.6125C101.187 93.6125 100.786 93.782 100.507 94.121C100.231 94.46 100.093 94.943 100.093 95.57C100.093 96.182 100.231 96.6575 100.507 96.9965C100.786 97.3325 101.181 97.5005 101.691 97.5005C102.039 97.5005 102.342 97.421 102.6 97.262C102.861 97.1 103.066 96.8675 103.216 96.5645L103.833 96.803C103.641 97.226 103.357 97.5545 102.982 97.7885C102.61 98.0195 102.189 98.135 101.718 98.135ZM99.8593 95.7545V95.201H103.572V95.7545H99.8593ZM108.411 96.8165V95.0435H106.638V94.4765H108.411V92.7035H108.978V94.4765H110.746V95.0435H108.978V96.8165H108.411ZM114.105 98.135C113.7 98.135 113.331 98.0375 112.998 97.8425C112.668 97.6445 112.404 97.3775 112.206 97.0415C112.011 96.7025 111.913 96.3215 111.913 95.8985V93.653C111.913 93.218 112.011 92.831 112.206 92.492C112.401 92.15 112.666 91.8815 113.002 91.6865C113.341 91.4885 113.725 91.3895 114.154 91.3895C114.523 91.3895 114.865 91.4705 115.18 91.6325C115.498 91.7945 115.758 92.021 115.959 92.312L115.45 92.7305C115.312 92.5145 115.129 92.342 114.901 92.213C114.673 92.084 114.424 92.0195 114.154 92.0195C113.851 92.0195 113.581 92.093 113.344 92.24C113.107 92.387 112.921 92.5805 112.786 92.8205C112.651 93.0575 112.584 93.3155 112.584 93.5945V95.0075L112.417 94.8185C112.606 94.5215 112.854 94.2815 113.16 94.0985C113.469 93.9155 113.805 93.824 114.168 93.824C114.57 93.824 114.931 93.92 115.252 94.112C115.573 94.301 115.828 94.5575 116.017 94.8815C116.206 95.2055 116.301 95.5685 116.301 95.9705C116.301 96.3695 116.2 96.7325 115.999 97.0595C115.801 97.3865 115.536 97.6475 115.203 97.8425C114.873 98.0375 114.507 98.135 114.105 98.135ZM114.105 97.4915C114.387 97.4915 114.643 97.424 114.874 97.289C115.108 97.154 115.293 96.971 115.428 96.74C115.566 96.509 115.635 96.2525 115.635 95.9705C115.635 95.6885 115.566 95.432 115.428 95.201C115.293 94.967 115.11 94.7825 114.879 94.6475C114.648 94.5095 114.391 94.4405 114.109 94.4405C113.827 94.4405 113.571 94.5095 113.34 94.6475C113.109 94.7825 112.924 94.967 112.786 95.201C112.651 95.432 112.584 95.6885 112.584 95.9705C112.584 96.2495 112.651 96.5045 112.786 96.7355C112.921 96.9665 113.104 97.151 113.335 97.289C113.566 97.424 113.823 97.4915 114.105 97.4915ZM119.47 98.135C119.065 98.135 118.706 98.054 118.394 97.892C118.085 97.73 117.842 97.5035 117.665 97.2125C117.491 96.9185 117.404 96.575 117.404 96.182C117.404 95.78 117.502 95.423 117.697 95.111C117.892 94.796 118.189 94.5575 118.588 94.3955L118.579 94.6565C118.246 94.5335 117.992 94.3325 117.818 94.0535C117.644 93.7745 117.557 93.4655 117.557 93.1265C117.557 92.7665 117.64 92.4575 117.805 92.1995C117.97 91.9385 118.195 91.7375 118.48 91.5965C118.768 91.4555 119.098 91.385 119.47 91.385C119.842 91.385 120.172 91.4555 120.46 91.5965C120.748 91.7375 120.974 91.9385 121.139 92.1995C121.304 92.4575 121.387 92.7665 121.387 93.1265C121.387 93.4655 121.303 93.773 121.135 94.049C120.97 94.325 120.716 94.5275 120.374 94.6565L120.352 94.3955C120.751 94.5545 121.049 94.7915 121.247 95.1065C121.448 95.4215 121.549 95.78 121.549 96.182C121.549 96.575 121.46 96.9185 121.283 97.2125C121.106 97.5035 120.862 97.73 120.55 97.892C120.238 98.054 119.878 98.135 119.47 98.135ZM119.47 97.5005C119.878 97.5005 120.209 97.388 120.464 97.163C120.719 96.935 120.847 96.608 120.847 96.182C120.847 95.75 120.721 95.423 120.469 95.201C120.217 94.976 119.884 94.8635 119.47 94.8635C119.056 94.8635 118.724 94.976 118.475 95.201C118.226 95.423 118.102 95.75 118.102 96.182C118.102 96.608 118.228 96.935 118.48 97.163C118.732 97.388 119.062 97.5005 119.47 97.5005ZM119.47 94.2245C119.83 94.2245 120.122 94.133 120.347 93.95C120.572 93.764 120.685 93.4895 120.685 93.1265C120.685 92.7635 120.572 92.492 120.347 92.312C120.122 92.129 119.83 92.0375 119.47 92.0375C119.11 92.0375 118.817 92.129 118.592 92.312C118.37 92.492 118.259 92.7635 118.259 93.1265C118.259 93.4895 118.37 93.764 118.592 93.95C118.817 94.133 119.11 94.2245 119.47 94.2245ZM122.841 98V97.2305H123.61V98H122.841ZM127.192 98.135C126.787 98.135 126.418 98.0375 126.085 97.8425C125.755 97.6445 125.491 97.3775 125.293 97.0415C125.098 96.7025 125 96.3215 125 95.8985V93.653C125 93.218 125.098 92.831 125.293 92.492C125.488 92.15 125.753 91.8815 126.089 91.6865C126.428 91.4885 126.812 91.3895 127.241 91.3895C127.61 91.3895 127.952 91.4705 128.267 91.6325C128.585 91.7945 128.845 92.021 129.046 92.312L128.537 92.7305C128.399 92.5145 128.216 92.342 127.988 92.213C127.76 92.084 127.511 92.0195 127.241 92.0195C126.938 92.0195 126.668 92.093 126.431 92.24C126.194 92.387 126.008 92.5805 125.873 92.8205C125.738 93.0575 125.671 93.3155 125.671 93.5945V95.0075L125.504 94.8185C125.693 94.5215 125.941 94.2815 126.247 94.0985C126.556 93.9155 126.892 93.824 127.255 93.824C127.657 93.824 128.018 93.92 128.339 94.112C128.66 94.301 128.915 94.5575 129.104 94.8815C129.293 95.2055 129.388 95.5685 129.388 95.9705C129.388 96.3695 129.287 96.7325 129.086 97.0595C128.888 97.3865 128.623 97.6475 128.29 97.8425C127.96 98.0375 127.594 98.135 127.192 98.135ZM127.192 97.4915C127.474 97.4915 127.73 97.424 127.961 97.289C128.195 97.154 128.38 96.971 128.515 96.74C128.653 96.509 128.722 96.2525 128.722 95.9705C128.722 95.6885 128.653 95.432 128.515 95.201C128.38 94.967 128.197 94.7825 127.966 94.6475C127.735 94.5095 127.478 94.4405 127.196 94.4405C126.914 94.4405 126.658 94.5095 126.427 94.6475C126.196 94.7825 126.011 94.967 125.873 95.201C125.738 95.432 125.671 95.6885 125.671 95.9705C125.671 96.2495 125.738 96.5045 125.873 96.7355C126.008 96.9665 126.191 97.151 126.422 97.289C126.653 97.424 126.91 97.4915 127.192 97.4915ZM133.434 98V96.7445H130.401V96.1145L132.57 91.52H133.313L131.144 96.1145H133.434V94.2245H134.1V96.1145H134.807V96.7445H134.1V98H133.434ZM136.52 98L136.07 97.55L142.113 91.52L142.563 91.9655L136.52 98ZM141.213 98.135C140.916 98.135 140.645 98.063 140.399 97.919C140.156 97.772 139.961 97.577 139.814 97.334C139.667 97.088 139.593 96.815 139.593 96.515C139.593 96.221 139.668 95.951 139.818 95.705C139.968 95.459 140.166 95.2625 140.412 95.1155C140.658 94.9685 140.925 94.895 141.213 94.895C141.51 94.895 141.782 94.9685 142.028 95.1155C142.274 95.2595 142.469 95.4545 142.613 95.7005C142.76 95.9435 142.833 96.215 142.833 96.515C142.833 96.815 142.76 97.088 142.613 97.334C142.469 97.577 142.274 97.772 142.028 97.919C141.782 98.063 141.51 98.135 141.213 98.135ZM141.213 97.5365C141.396 97.5365 141.566 97.49 141.722 97.397C141.878 97.304 142.002 97.181 142.095 97.028C142.188 96.872 142.235 96.701 142.235 96.515C142.235 96.329 142.188 96.1595 142.095 96.0065C142.002 95.8505 141.878 95.726 141.722 95.633C141.566 95.54 141.396 95.4935 141.213 95.4935C141.027 95.4935 140.856 95.54 140.7 95.633C140.547 95.726 140.423 95.8505 140.327 96.0065C140.234 96.1595 140.187 96.329 140.187 96.515C140.187 96.701 140.234 96.872 140.327 97.028C140.423 97.181 140.547 97.304 140.7 97.397C140.856 97.49 141.027 97.5365 141.213 97.5365ZM137.42 94.625C137.123 94.625 136.851 94.553 136.605 94.409C136.359 94.262 136.163 94.067 136.016 93.824C135.872 93.578 135.8 93.305 135.8 93.005C135.8 92.711 135.875 92.441 136.025 92.195C136.175 91.949 136.373 91.7525 136.619 91.6055C136.865 91.4585 137.132 91.385 137.42 91.385C137.717 91.385 137.987 91.4585 138.23 91.6055C138.476 91.7495 138.672 91.9445 138.819 92.1905C138.966 92.4335 139.04 92.705 139.04 93.005C139.04 93.305 138.966 93.578 138.819 93.824C138.672 94.067 138.476 94.262 138.23 94.409C137.987 94.553 137.717 94.625 137.42 94.625ZM137.42 94.0265C137.606 94.0265 137.775 93.98 137.928 93.887C138.084 93.794 138.209 93.671 138.302 93.518C138.395 93.362 138.441 93.191 138.441 93.005C138.441 92.819 138.395 92.6495 138.302 92.4965C138.209 92.3405 138.084 92.216 137.928 92.123C137.775 92.03 137.606 91.9835 137.42 91.9835C137.234 91.9835 137.063 92.03 136.907 92.123C136.754 92.216 136.631 92.3405 136.538 92.4965C136.445 92.6495 136.398 92.819 136.398 93.005C136.398 93.191 136.445 93.362 136.538 93.518C136.631 93.671 136.754 93.794 136.907 93.887C137.063 93.98 137.234 94.0265 137.42 94.0265ZM151.6 98L151.604 94.8095C151.604 94.4345 151.499 94.1405 151.289 93.9275C151.082 93.7115 150.818 93.6035 150.497 93.6035C150.314 93.6035 150.136 93.6455 149.962 93.7295C149.788 93.8135 149.644 93.9485 149.53 94.1345C149.419 94.3205 149.363 94.5635 149.363 94.8635L148.972 94.751C148.963 94.403 149.03 94.0985 149.174 93.8375C149.321 93.5765 149.522 93.374 149.777 93.23C150.035 93.083 150.326 93.0095 150.65 93.0095C151.139 93.0095 151.531 93.161 151.825 93.464C152.119 93.764 152.266 94.1705 152.266 94.6835L152.261 98H151.6ZM145.799 98V93.14H146.393V94.337H146.465V98H145.799ZM148.706 98L148.711 94.8545C148.711 94.4675 148.607 94.163 148.4 93.941C148.196 93.716 147.926 93.6035 147.59 93.6035C147.254 93.6035 146.983 93.719 146.776 93.95C146.569 94.178 146.465 94.4825 146.465 94.8635L146.069 94.6475C146.069 94.3355 146.143 94.0565 146.29 93.8105C146.437 93.5615 146.638 93.3665 146.893 93.2255C147.148 93.0815 147.437 93.0095 147.761 93.0095C148.07 93.0095 148.345 93.0755 148.585 93.2075C148.828 93.3395 149.018 93.5315 149.156 93.7835C149.294 94.0355 149.363 94.3415 149.363 94.7015L149.359 98H148.706ZM155.436 98.135C154.953 98.135 154.54 98.0255 154.198 97.8065C153.856 97.5875 153.594 97.2845 153.411 96.8975C153.228 96.5105 153.136 96.0665 153.136 95.5655C153.136 95.0555 153.229 94.6085 153.415 94.2245C153.601 93.8405 153.865 93.542 154.207 93.329C154.552 93.113 154.962 93.005 155.436 93.005C155.922 93.005 156.336 93.1145 156.678 93.3335C157.023 93.5495 157.285 93.851 157.465 94.238C157.648 94.622 157.74 95.0645 157.74 95.5655C157.74 96.0755 157.648 96.524 157.465 96.911C157.282 97.295 157.018 97.595 156.673 97.811C156.328 98.027 155.916 98.135 155.436 98.135ZM155.436 97.5005C155.976 97.5005 156.378 97.322 156.642 96.965C156.906 96.605 157.038 96.1385 157.038 95.5655C157.038 94.9775 156.904 94.5095 156.637 94.1615C156.373 93.8135 155.973 93.6395 155.436 93.6395C155.073 93.6395 154.773 93.722 154.536 93.887C154.302 94.049 154.126 94.2755 154.009 94.5665C153.895 94.8545 153.838 95.1875 153.838 95.5655C153.838 96.1505 153.973 96.62 154.243 96.974C154.513 97.325 154.911 97.5005 155.436 97.5005ZM158.733 98V93.14H159.327V94.31L159.21 94.157C159.264 94.013 159.334 93.881 159.421 93.761C159.508 93.638 159.603 93.5375 159.705 93.4595C159.831 93.3485 159.978 93.2645 160.146 93.2075C160.314 93.1475 160.483 93.113 160.654 93.104C160.825 93.092 160.981 93.104 161.122 93.14V93.761C160.945 93.716 160.752 93.7055 160.542 93.7295C160.332 93.7535 160.138 93.8375 159.961 93.9815C159.799 94.1075 159.678 94.259 159.597 94.436C159.516 94.61 159.462 94.796 159.435 94.994C159.408 95.189 159.394 95.3825 159.394 95.5745V98H158.733ZM163.944 98.135C163.47 98.135 163.059 98.03 162.711 97.82C162.366 97.61 162.098 97.3145 161.906 96.9335C161.714 96.5525 161.618 96.1055 161.618 95.5925C161.618 95.0615 161.712 94.6025 161.901 94.2155C162.09 93.8285 162.356 93.53 162.698 93.32C163.043 93.11 163.449 93.005 163.917 93.005C164.397 93.005 164.807 93.116 165.146 93.338C165.485 93.557 165.741 93.872 165.915 94.283C166.089 94.694 166.169 95.1845 166.154 95.7545H165.479V95.5205C165.467 94.8905 165.33 94.415 165.069 94.094C164.811 93.773 164.433 93.6125 163.935 93.6125C163.413 93.6125 163.013 93.782 162.734 94.121C162.458 94.46 162.32 94.943 162.32 95.57C162.32 96.182 162.458 96.6575 162.734 96.9965C163.013 97.3325 163.407 97.5005 163.917 97.5005C164.265 97.5005 164.568 97.421 164.826 97.262C165.087 97.1 165.293 96.8675 165.443 96.5645L166.059 96.803C165.867 97.226 165.584 97.5545 165.209 97.7885C164.837 98.0195 164.415 98.135 163.944 98.135ZM162.086 95.7545V95.201H165.798V95.7545H162.086ZM170.268 98L168.504 93.14H169.175L170.61 97.136L172.037 93.14H172.716L170.952 98H170.268ZM173.615 92.2175V91.475H174.276V92.2175H173.615ZM173.615 98V93.14H174.276V98H173.615ZM177.439 98.1305C176.869 98.1305 176.399 98.0075 176.03 97.7615C175.664 97.5155 175.439 97.1735 175.355 96.7355L176.03 96.623C176.102 96.899 176.266 97.1195 176.521 97.2845C176.779 97.4465 177.097 97.5275 177.475 97.5275C177.844 97.5275 178.135 97.451 178.348 97.298C178.561 97.142 178.667 96.9305 178.667 96.6635C178.667 96.5135 178.633 96.392 178.564 96.299C178.498 96.203 178.361 96.1145 178.154 96.0335C177.947 95.9525 177.638 95.8565 177.227 95.7455C176.786 95.6255 176.441 95.5055 176.192 95.3855C175.943 95.2655 175.766 95.1275 175.661 94.9715C175.556 94.8125 175.504 94.619 175.504 94.391C175.504 94.115 175.582 93.8735 175.738 93.6665C175.894 93.4565 176.11 93.2945 176.386 93.1805C176.662 93.0635 176.983 93.005 177.349 93.005C177.715 93.005 178.042 93.065 178.33 93.185C178.621 93.302 178.855 93.467 179.032 93.68C179.209 93.893 179.314 94.1405 179.347 94.4225L178.672 94.544C178.627 94.259 178.484 94.034 178.244 93.869C178.007 93.701 177.706 93.614 177.34 93.608C176.995 93.599 176.714 93.665 176.498 93.806C176.282 93.944 176.174 94.1285 176.174 94.3595C176.174 94.4885 176.213 94.5995 176.291 94.6925C176.369 94.7825 176.51 94.868 176.714 94.949C176.921 95.03 177.215 95.1185 177.596 95.2145C178.043 95.3285 178.394 95.4485 178.649 95.5745C178.904 95.7005 179.086 95.849 179.194 96.02C179.302 96.191 179.356 96.4025 179.356 96.6545C179.356 97.1135 179.185 97.475 178.843 97.739C178.504 98 178.036 98.1305 177.439 98.1305ZM180.444 92.2175V91.475H181.105V92.2175H180.444ZM180.444 98V93.14H181.105V98H180.444ZM185.1 98C184.827 98.057 184.557 98.0795 184.29 98.0675C184.026 98.0555 183.789 97.9985 183.579 97.8965C183.372 97.7945 183.215 97.6355 183.107 97.4195C183.02 97.2395 182.972 97.058 182.963 96.875C182.957 96.689 182.954 96.4775 182.954 96.2405V91.79H183.611V96.2135C183.611 96.4175 183.612 96.5885 183.615 96.7265C183.621 96.8615 183.653 96.9815 183.71 97.0865C183.818 97.2875 183.989 97.4075 184.223 97.4465C184.46 97.4855 184.752 97.4765 185.1 97.4195V98ZM181.914 93.707V93.14H185.1V93.707H181.914ZM187.911 98.135C187.428 98.135 187.016 98.0255 186.674 97.8065C186.332 97.5875 186.069 97.2845 185.886 96.8975C185.703 96.5105 185.612 96.0665 185.612 95.5655C185.612 95.0555 185.705 94.6085 185.891 94.2245C186.077 93.8405 186.341 93.542 186.683 93.329C187.028 93.113 187.437 93.005 187.911 93.005C188.397 93.005 188.811 93.1145 189.153 93.3335C189.498 93.5495 189.761 93.851 189.941 94.238C190.124 94.622 190.215 95.0645 190.215 95.5655C190.215 96.0755 190.124 96.524 189.941 96.911C189.758 97.295 189.494 97.595 189.149 97.811C188.804 98.027 188.391 98.135 187.911 98.135ZM187.911 97.5005C188.451 97.5005 188.853 97.322 189.117 96.965C189.381 96.605 189.513 96.1385 189.513 95.5655C189.513 94.9775 189.38 94.5095 189.113 94.1615C188.849 93.8135 188.448 93.6395 187.911 93.6395C187.548 93.6395 187.248 93.722 187.011 93.887C186.777 94.049 186.602 94.2755 186.485 94.5665C186.371 94.8545 186.314 95.1875 186.314 95.5655C186.314 96.1505 186.449 96.62 186.719 96.974C186.989 97.325 187.386 97.5005 187.911 97.5005ZM191.208 98V93.14H191.802V94.31L191.685 94.157C191.739 94.013 191.81 93.881 191.897 93.761C191.984 93.638 192.078 93.5375 192.18 93.4595C192.306 93.3485 192.453 93.2645 192.621 93.2075C192.789 93.1475 192.959 93.113 193.13 93.104C193.301 93.092 193.457 93.104 193.598 93.14V93.761C193.421 93.716 193.227 93.7055 193.017 93.7295C192.807 93.7535 192.614 93.8375 192.437 93.9815C192.275 94.1075 192.153 94.259 192.072 94.436C191.991 94.61 191.937 94.796 191.91 94.994C191.883 95.189 191.87 95.3825 191.87 95.5745V98H191.208ZM196.089 98.1305C195.519 98.1305 195.05 98.0075 194.681 97.7615C194.315 97.5155 194.09 97.1735 194.006 96.7355L194.681 96.623C194.753 96.899 194.916 97.1195 195.171 97.2845C195.429 97.4465 195.747 97.5275 196.125 97.5275C196.494 97.5275 196.785 97.451 196.998 97.298C197.211 97.142 197.318 96.9305 197.318 96.6635C197.318 96.5135 197.283 96.392 197.214 96.299C197.148 96.203 197.012 96.1145 196.805 96.0335C196.598 95.9525 196.289 95.8565 195.878 95.7455C195.437 95.6255 195.092 95.5055 194.843 95.3855C194.594 95.2655 194.417 95.1275 194.312 94.9715C194.207 94.8125 194.154 94.619 194.154 94.391C194.154 94.115 194.232 93.8735 194.388 93.6665C194.544 93.4565 194.76 93.2945 195.036 93.1805C195.312 93.0635 195.633 93.005 195.999 93.005C196.365 93.005 196.692 93.065 196.98 93.185C197.271 93.302 197.505 93.467 197.682 93.68C197.859 93.893 197.964 94.1405 197.997 94.4225L197.322 94.544C197.277 94.259 197.135 94.034 196.895 93.869C196.658 93.701 196.356 93.614 195.99 93.608C195.645 93.599 195.365 93.665 195.149 93.806C194.933 93.944 194.825 94.1285 194.825 94.3595C194.825 94.4885 194.864 94.5995 194.942 94.6925C195.02 94.7825 195.161 94.868 195.365 94.949C195.572 95.03 195.866 95.1185 196.247 95.2145C196.694 95.3285 197.045 95.4485 197.3 95.5745C197.555 95.7005 197.736 95.849 197.844 96.02C197.952 96.191 198.006 96.4025 198.006 96.6545C198.006 97.1135 197.835 97.475 197.493 97.739C197.154 98 196.686 98.1305 196.089 98.1305Z" fill="#666666"/>
<path d="M20.84 34V25.36H24.254C24.338 25.36 24.438 25.364 24.554 25.372C24.67 25.376 24.782 25.388 24.89 25.408C25.358 25.48 25.75 25.64 26.066 25.888C26.386 26.136 26.626 26.45 26.786 26.83C26.946 27.206 27.026 27.624 27.026 28.084C27.026 28.54 26.944 28.958 26.78 29.338C26.62 29.714 26.38 30.028 26.06 30.28C25.744 30.528 25.354 30.688 24.89 30.76C24.782 30.776 24.67 30.788 24.554 30.796C24.438 30.804 24.338 30.808 24.254 30.808H21.908V34H20.84ZM21.908 29.794H24.218C24.294 29.794 24.38 29.79 24.476 29.782C24.576 29.774 24.67 29.76 24.758 29.74C25.034 29.676 25.258 29.56 25.43 29.392C25.606 29.22 25.734 29.02 25.814 28.792C25.894 28.56 25.934 28.324 25.934 28.084C25.934 27.844 25.894 27.61 25.814 27.382C25.734 27.15 25.606 26.948 25.43 26.776C25.258 26.604 25.034 26.488 24.758 26.428C24.67 26.404 24.576 26.39 24.476 26.386C24.38 26.378 24.294 26.374 24.218 26.374H21.908V29.794ZM28.2228 34V27.52H29.1768V29.086L29.0208 28.882C29.0968 28.682 29.1948 28.498 29.3148 28.33C29.4388 28.162 29.5768 28.024 29.7288 27.916C29.8968 27.78 30.0868 27.676 30.2988 27.604C30.5108 27.532 30.7268 27.49 30.9468 27.478C31.1668 27.462 31.3728 27.476 31.5648 27.52V28.522C31.3408 28.462 31.0948 28.446 30.8268 28.474C30.5588 28.502 30.3108 28.6 30.0828 28.768C29.8748 28.916 29.7128 29.096 29.5968 29.308C29.4848 29.52 29.4068 29.75 29.3628 29.998C29.3188 30.242 29.2968 30.492 29.2968 30.748V34H28.2228ZM35.3902 34.18C34.7542 34.18 34.1982 34.04 33.7222 33.76C33.2502 33.476 32.8822 33.082 32.6182 32.578C32.3542 32.07 32.2222 31.478 32.2222 30.802C32.2222 30.094 32.3522 29.482 32.6122 28.966C32.8722 28.446 33.2342 28.046 33.6982 27.766C34.1662 27.482 34.7142 27.34 35.3422 27.34C35.9942 27.34 36.5482 27.49 37.0042 27.79C37.4642 28.09 37.8082 28.518 38.0362 29.074C38.2682 29.63 38.3682 30.292 38.3362 31.06H37.2562V30.676C37.2442 29.88 37.0822 29.286 36.7702 28.894C36.4582 28.498 35.9942 28.3 35.3782 28.3C34.7182 28.3 34.2162 28.512 33.8722 28.936C33.5282 29.36 33.3562 29.968 33.3562 30.76C33.3562 31.524 33.5282 32.116 33.8722 32.536C34.2162 32.956 34.7062 33.166 35.3422 33.166C35.7702 33.166 36.1422 33.068 36.4582 32.872C36.7742 32.676 37.0222 32.394 37.2022 32.026L38.2282 32.38C37.9762 32.952 37.5962 33.396 37.0882 33.712C36.5842 34.024 36.0182 34.18 35.3902 34.18ZM32.9962 31.06V30.202H37.7842V31.06H32.9962ZM42.216 34.18C41.612 34.18 41.094 34.03 40.662 33.73C40.23 33.426 39.896 33.016 39.66 32.5C39.428 31.984 39.312 31.402 39.312 30.754C39.312 30.106 39.428 29.524 39.66 29.008C39.896 28.492 40.23 28.086 40.662 27.79C41.094 27.49 41.61 27.34 42.21 27.34C42.822 27.34 43.336 27.488 43.752 27.784C44.168 28.08 44.482 28.486 44.694 29.002C44.91 29.518 45.018 30.102 45.018 30.754C45.018 31.398 44.91 31.98 44.694 32.5C44.482 33.016 44.168 33.426 43.752 33.73C43.336 34.03 42.824 34.18 42.216 34.18ZM42.348 33.202C42.784 33.202 43.142 33.098 43.422 32.89C43.702 32.678 43.908 32.388 44.04 32.02C44.176 31.648 44.244 31.226 44.244 30.754C44.244 30.274 44.176 29.852 44.04 29.488C43.908 29.12 43.704 28.834 43.428 28.63C43.152 28.422 42.802 28.318 42.378 28.318C41.938 28.318 41.574 28.426 41.286 28.642C41.002 28.858 40.79 29.15 40.65 29.518C40.514 29.886 40.446 30.298 40.446 30.754C40.446 31.214 40.516 31.63 40.656 32.002C40.796 32.37 41.006 32.662 41.286 32.878C41.57 33.094 41.924 33.202 42.348 33.202ZM44.244 34V29.23H44.124V25.36H45.198V34H44.244ZM46.9991 26.374V25.27H48.0671V26.374H46.9991ZM46.9991 34V27.52H48.0671V34H46.9991ZM52.5973 34.18C51.9413 34.18 51.3833 34.034 50.9233 33.742C50.4673 33.446 50.1193 33.04 49.8793 32.524C49.6393 32.008 49.5153 31.42 49.5073 30.76C49.5153 30.084 49.6413 29.49 49.8853 28.978C50.1333 28.462 50.4873 28.06 50.9473 27.772C51.4073 27.484 51.9613 27.34 52.6093 27.34C53.2933 27.34 53.8813 27.508 54.3733 27.844C54.8693 28.18 55.2013 28.64 55.3693 29.224L54.3133 29.542C54.1773 29.166 53.9553 28.874 53.6473 28.666C53.3433 28.458 52.9933 28.354 52.5973 28.354C52.1533 28.354 51.7873 28.458 51.4993 28.666C51.2113 28.87 50.9973 29.154 50.8573 29.518C50.7173 29.878 50.6453 30.292 50.6413 30.76C50.6493 31.48 50.8153 32.062 51.1393 32.506C51.4673 32.946 51.9533 33.166 52.5973 33.166C53.0213 33.166 53.3733 33.07 53.6533 32.878C53.9333 32.682 54.1453 32.4 54.2893 32.032L55.3693 32.314C55.1453 32.918 54.7953 33.38 54.3193 33.7C53.8433 34.02 53.2693 34.18 52.5973 34.18ZM60.2119 34C59.8279 34.076 59.4479 34.106 59.0719 34.09C58.6999 34.078 58.3679 34.004 58.0759 33.868C57.7839 33.728 57.5619 33.512 57.4099 33.22C57.2819 32.964 57.2119 32.706 57.1999 32.446C57.1919 32.182 57.1879 31.884 57.1879 31.552V25.72H58.2559V31.504C58.2559 31.768 58.2579 31.994 58.2619 32.182C58.2699 32.37 58.3119 32.532 58.3879 32.668C58.5319 32.924 58.7599 33.074 59.0719 33.118C59.3879 33.162 59.7679 33.15 60.2119 33.082V34ZM55.8739 28.402V27.52H60.2119V28.402H55.8739ZM61.6475 26.374V25.27H62.7155V26.374H61.6475ZM61.6475 34V27.52H62.7155V34H61.6475ZM66.2678 34L63.9158 27.52H64.9958L66.8138 32.638L68.6258 27.52H69.7118L67.3598 34H66.2678ZM73.3707 34.18C72.7347 34.18 72.1787 34.04 71.7027 33.76C71.2307 33.476 70.8627 33.082 70.5987 32.578C70.3347 32.07 70.2027 31.478 70.2027 30.802C70.2027 30.094 70.3327 29.482 70.5927 28.966C70.8527 28.446 71.2147 28.046 71.6787 27.766C72.1467 27.482 72.6947 27.34 73.3227 27.34C73.9747 27.34 74.5287 27.49 74.9847 27.79C75.4447 28.09 75.7887 28.518 76.0167 29.074C76.2487 29.63 76.3487 30.292 76.3167 31.06H75.2367V30.676C75.2247 29.88 75.0627 29.286 74.7507 28.894C74.4387 28.498 73.9747 28.3 73.3587 28.3C72.6987 28.3 72.1967 28.512 71.8527 28.936C71.5087 29.36 71.3367 29.968 71.3367 30.76C71.3367 31.524 71.5087 32.116 71.8527 32.536C72.1967 32.956 72.6867 33.166 73.3227 33.166C73.7507 33.166 74.1227 33.068 74.4387 32.872C74.7547 32.676 75.0027 32.394 75.1827 32.026L76.2087 32.38C75.9567 32.952 75.5767 33.396 75.0687 33.712C74.5647 34.024 73.9987 34.18 73.3707 34.18ZM70.9767 31.06V30.202H75.7647V31.06H70.9767ZM79.4548 34L82.3468 25.36H83.8348L86.7268 34H85.6168L82.9108 25.984H83.2468L80.5648 34H79.4548ZM80.8468 31.978V30.976H85.3348V31.978H80.8468ZM92.4149 34V30.754C92.4149 30.446 92.3869 30.15 92.3309 29.866C92.2789 29.582 92.1849 29.328 92.0489 29.104C91.9169 28.876 91.7369 28.696 91.5089 28.564C91.2849 28.432 91.0009 28.366 90.6569 28.366C90.3889 28.366 90.1449 28.412 89.9249 28.504C89.7089 28.592 89.5229 28.728 89.3669 28.912C89.2109 29.096 89.0889 29.328 89.0009 29.608C88.9169 29.884 88.8749 30.21 88.8749 30.586L88.1729 30.37C88.1729 29.742 88.2849 29.204 88.5089 28.756C88.7369 28.304 89.0549 27.958 89.4629 27.718C89.8749 27.474 90.3589 27.352 90.9149 27.352C91.3349 27.352 91.6929 27.418 91.9889 27.55C92.2849 27.682 92.5309 27.858 92.7269 28.078C92.9229 28.294 93.0769 28.538 93.1889 28.81C93.3009 29.078 93.3789 29.352 93.4229 29.632C93.4709 29.908 93.4949 30.17 93.4949 30.418V34H92.4149ZM87.7949 34V27.52H88.7549V29.254H88.8749V34H87.7949ZM96.8968 34.18C96.4128 34.18 96.0068 34.092 95.6788 33.916C95.3548 33.736 95.1088 33.5 94.9408 33.208C94.7768 32.916 94.6948 32.596 94.6948 32.248C94.6948 31.908 94.7588 31.614 94.8868 31.366C95.0188 31.114 95.2028 30.906 95.4388 30.742C95.6748 30.574 95.9568 30.442 96.2848 30.346C96.5928 30.262 96.9368 30.19 97.3168 30.13C97.7008 30.066 98.0888 30.008 98.4808 29.956C98.8728 29.904 99.2388 29.854 99.5788 29.806L99.1948 30.028C99.2068 29.452 99.0908 29.026 98.8468 28.75C98.6068 28.474 98.1908 28.336 97.5988 28.336C97.2068 28.336 96.8628 28.426 96.5668 28.606C96.2748 28.782 96.0688 29.07 95.9488 29.47L94.9348 29.164C95.0908 28.596 95.3928 28.15 95.8408 27.826C96.2888 27.502 96.8788 27.34 97.6108 27.34C98.1988 27.34 98.7028 27.446 99.1228 27.658C99.5468 27.866 99.8508 28.182 100.035 28.606C100.127 28.806 100.185 29.024 100.209 29.26C100.233 29.492 100.245 29.736 100.245 29.992V34H99.2968V32.446L99.5188 32.59C99.2748 33.114 98.9328 33.51 98.4928 33.778C98.0568 34.046 97.5248 34.18 96.8968 34.18ZM97.0588 33.286C97.4428 33.286 97.7748 33.218 98.0548 33.082C98.3388 32.942 98.5668 32.76 98.7388 32.536C98.9108 32.308 99.0228 32.06 99.0748 31.792C99.1348 31.592 99.1668 31.37 99.1708 31.126C99.1788 30.878 99.1828 30.688 99.1828 30.556L99.5548 30.718C99.2068 30.766 98.8648 30.812 98.5288 30.856C98.1928 30.9 97.8748 30.948 97.5748 31C97.2748 31.048 97.0048 31.106 96.7648 31.174C96.5888 31.23 96.4228 31.302 96.2668 31.39C96.1148 31.478 95.9908 31.592 95.8948 31.732C95.8028 31.868 95.7568 32.038 95.7568 32.242C95.7568 32.418 95.8008 32.586 95.8888 32.746C95.9808 32.906 96.1208 33.036 96.3088 33.136C96.5008 33.236 96.7508 33.286 97.0588 33.286ZM101.925 34V25.18H102.993V34H101.925ZM105.693 36.88L106.947 33.472L106.965 34.48L104.133 27.52H105.255L107.475 33.118H107.091L109.173 27.52H110.259L106.731 36.88H105.693ZM115.349 34C114.965 34.076 114.585 34.106 114.209 34.09C113.837 34.078 113.505 34.004 113.213 33.868C112.921 33.728 112.699 33.512 112.547 33.22C112.419 32.964 112.349 32.706 112.337 32.446C112.329 32.182 112.325 31.884 112.325 31.552V25.72H113.393V31.504C113.393 31.768 113.395 31.994 113.399 32.182C113.407 32.37 113.449 32.532 113.525 32.668C113.669 32.924 113.897 33.074 114.209 33.118C114.525 33.162 114.905 33.15 115.349 33.082V34ZM111.011 28.402V27.52H115.349V28.402H111.011ZM116.784 26.374V25.27H117.852V26.374H116.784ZM116.784 34V27.52H117.852V34H116.784ZM122.383 34.18C121.727 34.18 121.169 34.034 120.709 33.742C120.253 33.446 119.905 33.04 119.665 32.524C119.425 32.008 119.301 31.42 119.293 30.76C119.301 30.084 119.427 29.49 119.671 28.978C119.919 28.462 120.273 28.06 120.733 27.772C121.193 27.484 121.747 27.34 122.395 27.34C123.079 27.34 123.667 27.508 124.159 27.844C124.655 28.18 124.987 28.64 125.155 29.224L124.099 29.542C123.963 29.166 123.741 28.874 123.433 28.666C123.129 28.458 122.779 28.354 122.383 28.354C121.939 28.354 121.573 28.458 121.285 28.666C120.997 28.87 120.783 29.154 120.643 29.518C120.503 29.878 120.431 30.292 120.427 30.76C120.435 31.48 120.601 32.062 120.925 32.506C121.253 32.946 121.739 33.166 122.383 33.166C122.807 33.166 123.159 33.07 123.439 32.878C123.719 32.682 123.931 32.4 124.075 32.032L125.155 32.314C124.931 32.918 124.581 33.38 124.105 33.7C123.629 34.02 123.055 34.18 122.383 34.18ZM128.827 34.174C128.055 34.174 127.421 34.006 126.925 33.67C126.433 33.33 126.131 32.856 126.019 32.248L127.111 32.074C127.199 32.426 127.401 32.706 127.717 32.914C128.033 33.118 128.425 33.22 128.893 33.22C129.337 33.22 129.685 33.128 129.937 32.944C130.189 32.76 130.315 32.51 130.315 32.194C130.315 32.01 130.273 31.862 130.189 31.75C130.105 31.634 129.931 31.526 129.667 31.426C129.407 31.326 129.013 31.206 128.485 31.066C127.913 30.914 127.463 30.756 127.135 30.592C126.807 30.428 126.573 30.238 126.433 30.022C126.293 29.806 126.223 29.544 126.223 29.236C126.223 28.856 126.327 28.524 126.535 28.24C126.743 27.952 127.033 27.73 127.405 27.574C127.781 27.418 128.217 27.34 128.713 27.34C129.205 27.34 129.645 27.418 130.033 27.574C130.421 27.73 130.733 27.952 130.969 28.24C131.209 28.524 131.351 28.856 131.395 29.236L130.303 29.434C130.251 29.086 130.083 28.812 129.799 28.612C129.519 28.412 129.157 28.306 128.713 28.294C128.293 28.278 127.951 28.352 127.687 28.516C127.427 28.68 127.297 28.902 127.297 29.182C127.297 29.338 127.345 29.472 127.441 29.584C127.541 29.696 127.723 29.802 127.987 29.902C128.255 30.002 128.643 30.116 129.151 30.244C129.723 30.388 130.173 30.546 130.501 30.718C130.833 30.886 131.069 31.086 131.209 31.318C131.349 31.546 131.419 31.828 131.419 32.164C131.419 32.788 131.189 33.28 130.729 33.64C130.269 33.996 129.635 34.174 128.827 34.174Z" fill="black"/>
</svg>
